<svg width="120" height="120" viewBox="0 0 120 120" fill="none" xmlns="http://www.w3.org/2000/svg">
<mask id="mask0" mask-type="alpha" maskUnits="userSpaceOnUse" x="0" y="0" width="120" height="120">
<circle cx="60" cy="60" r="60" fill="black"/>
</mask>
<g mask="url(#mask0)">
<circle cx="60" cy="60" r="60" fill="#FAC594"/>
<path d="M47.0262 34.4302C46.9234 33.7292 46.3063 33.2096 45.5918 33.2745C43.0882 33.4505 40.2517 34.9932 38.5385 37.1097C36.6737 39.4049 35.8211 42.217 36.2596 44.6339C36.3732 45.2619 36.9119 45.7247 37.5479 45.7463C37.621 45.749 37.6913 45.749 37.7644 45.749C40.3383 45.749 43.0855 44.3091 44.8177 42.0356C46.5878 39.7297 47.3916 36.9581 47.0262 34.4302ZM42.6687 40.3928L42.666 40.3955C41.7025 41.6594 40.2788 42.5797 38.8687 42.9099C38.9986 41.359 39.7997 39.846 40.6388 38.8148C41.5563 37.6835 42.9854 36.7335 44.3819 36.268C44.1952 38.1869 43.1775 39.7324 42.6687 40.3928Z" fill="white"/>
<path d="M55.896 66.6009C55.7526 66.2572 55.4792 65.9919 55.1328 65.8566C52.3829 64.7956 50.537 62.2515 50.3232 59.2147C50.1148 56.2321 51.5412 53.5851 54.1422 52.1344C54.4886 51.9422 54.7349 51.6093 54.8107 51.2196C54.8865 50.8298 54.7917 50.4265 54.5455 50.1153C52.2584 47.2166 48.9943 45.4844 45.8141 45.4844C43.6001 45.4844 42.0466 46.0825 40.7962 46.5643C39.8326 46.9351 39.0748 47.2274 38.1898 47.2274C37.1992 47.2274 36.2708 46.8891 35.1963 46.4993C33.8917 46.0257 32.4113 45.4898 30.5437 45.4898C26.9359 45.4898 23.2875 47.6929 21.0221 51.2385C17.6226 56.5731 18.5889 65.7673 23.3226 73.0993C25.1685 75.9629 27.7425 79.254 31.3178 79.2865C31.3395 79.2865 31.3638 79.2865 31.3882 79.2865C32.8687 79.2865 33.8917 78.821 34.7957 78.4123C35.7403 77.9847 36.6308 77.5787 38.2331 77.5679C39.7541 77.5219 40.7041 77.9657 41.6271 78.3961C42.5284 78.8183 43.5785 79.273 45.0671 79.2784C48.545 79.2513 51.1244 75.9791 53.1895 72.78C54.4399 70.8421 54.9217 69.8379 55.8825 67.6673C56.0341 67.329 56.0395 66.9419 55.896 66.6009ZM50.9187 71.313C49.3435 73.7543 47.2513 76.5556 45.0455 76.5746C44.1794 76.5556 43.5677 76.3174 42.7747 75.9466C41.7299 75.4595 40.4172 74.8938 38.2195 74.8667C36.038 74.8775 34.7308 75.4703 33.6779 75.9493C32.8578 76.3174 32.2651 76.5285 31.3422 76.58C29.0605 76.5583 27.0739 73.9275 25.5962 71.6324C20.9003 64.3572 20.9084 56.4459 23.301 52.6946C25.0738 49.9204 27.848 48.1963 30.541 48.1963C31.9322 48.1963 33.0689 48.6104 34.2761 49.0462C35.4805 49.482 36.7255 49.9339 38.1925 49.9339C39.5782 49.9339 40.6933 49.5036 41.7705 49.0895C42.9181 48.6483 44.1036 48.1909 45.8168 48.1909C47.7628 48.1909 49.7846 49.1084 51.4302 50.6972C48.7805 52.7677 47.3785 55.9181 47.6248 59.4069C47.8792 63.012 49.8496 66.1083 52.8701 67.781C52.2747 69.0747 51.8172 69.9191 50.9187 71.313Z" fill="white"/>
<path d="M-nan -nanL83.4346 79.75C93.4611 79.75 100.122 72.712 100.122 62.7781C100.122 61.9913 100.065 61.3287 99.9757 60.7051C99.9075 60.2289 99.4903 59.8869 99.0092 59.8869H84.4369C83.8846 59.8869 83.4369 60.3346 83.4369 60.8869V64.8593C83.4369 65.4116 83.8846 65.8593 84.4369 65.8593H92.1275C92.7424 65.8593 93.2098 66.4101 93.0139 66.9929C92.1255 69.6358 89.3903 73.349 83.4369 73.349C77.5132 73.349 72.676 68.4423 72.676 62.375C72.676 56.3076 77.5108 51.3986 83.4369 51.3986C86.2591 51.3986 88.2926 52.4009 89.6337 53.4479C90.0568 53.7782 90.6651 53.783 91.0523 53.4114L94.3146 50.2805C94.7282 49.8835 94.7257 49.2183 94.2847 48.8519C91.3701 46.4302 87.7303 45 83.4346 45C73.8343 45 66.0596 52.7747 66.0596 62.375C66.0596 71.9753 73.8343 79.75 83.4346 79.75L-nan -nanL-nan -nanZ" stroke="white" stroke-width="2.2"/>
</g>
</svg>
