<svg width="120" height="120" viewBox="0 0 120 120" fill="none" xmlns="http://www.w3.org/2000/svg">
<mask id="mask0" mask-type="alpha" maskUnits="userSpaceOnUse" x="0" y="0" width="120" height="120">
<circle cx="60" cy="60" r="60" fill="black"/>
</mask>
<g mask="url(#mask0)">
<circle cx="60" cy="60" r="60" fill="#FAC594"/>
<path d="M47.0262 37.1612C46.9234 36.4602 46.3063 35.9405 45.5918 36.0055C43.0882 36.1814 40.2517 37.7241 38.5385 39.8407C36.6737 42.1358 35.8211 44.9479 36.2596 47.3649C36.3732 47.9928 36.9119 48.4556 37.5479 48.4773C37.621 48.48 37.6913 48.48 37.7644 48.48C40.3383 48.48 43.0855 47.0401 44.8177 44.7666C46.5878 42.4606 47.3916 39.6891 47.0262 37.1612ZM42.6687 43.1237L42.666 43.1264C41.7025 44.3904 40.2788 45.3106 38.8687 45.6408C38.9986 44.09 39.7997 42.577 40.6388 41.5458C41.5563 40.4145 42.9854 39.4645 44.3819 38.9989C44.1952 40.9179 43.1775 42.4633 42.6687 43.1237Z" fill="white"/>
<path d="M55.896 69.3353C55.7526 68.9916 55.4792 68.7263 55.1328 68.591C52.3829 67.53 50.537 64.9858 50.3232 61.9491C50.1148 58.9665 51.5412 56.3195 54.1422 54.8688C54.4886 54.6766 54.7349 54.3437 54.8107 53.9539C54.8865 53.5642 54.7917 53.1609 54.5455 52.8497C52.2584 49.9509 48.9943 48.2188 45.8141 48.2188C43.6001 48.2188 42.0466 48.8169 40.7962 49.2987C39.8326 49.6695 39.0748 49.9618 38.1898 49.9618C37.1992 49.9618 36.2708 49.6235 35.1963 49.2337C33.8917 48.7601 32.4113 48.2242 30.5437 48.2242C26.9359 48.2242 23.2875 50.4273 21.0221 53.9729C17.6226 59.3075 18.5889 68.5017 23.3226 75.8337C25.1685 78.6973 27.7425 81.9884 31.3178 82.0209C31.3395 82.0209 31.3638 82.0209 31.3882 82.0209C32.8687 82.0209 33.8917 81.5554 34.7957 81.1467C35.7403 80.719 36.6308 80.3131 38.2331 80.3022C39.7541 80.2562 40.7041 80.7001 41.6271 81.1304C42.5284 81.5527 43.5785 82.0074 45.0671 82.0128C48.545 81.9857 51.1244 78.7135 53.1895 75.5143C54.4399 73.5765 54.9217 72.5723 55.8825 70.4017C56.0341 70.0633 56.0395 69.6763 55.896 69.3353ZM50.9187 74.0474C49.3435 76.4887 47.2513 79.29 45.0455 79.3089C44.1794 79.29 43.5677 79.0518 42.7747 78.681C41.7299 78.1938 40.4172 77.6282 38.2195 77.6011C36.038 77.6119 34.7308 78.2047 33.6779 78.6837C32.8578 79.0518 32.2651 79.2629 31.3422 79.3143C29.0605 79.2927 27.0739 76.6619 25.5962 74.3668C20.9003 67.0915 20.9084 59.1803 23.301 55.429C25.0738 52.6548 27.848 50.9307 30.541 50.9307C31.9322 50.9307 33.0689 51.3448 34.2761 51.7806C35.4805 52.2163 36.7255 52.6683 38.1925 52.6683C39.5782 52.6683 40.6933 52.238 41.7705 51.8239C42.9181 51.3827 44.1036 50.9253 45.8168 50.9253C47.7628 50.9253 49.7846 51.8428 51.4302 53.4316C48.7805 55.5021 47.3785 58.6525 47.6248 62.1413C47.8792 65.7464 49.8496 68.8427 52.8701 70.5153C52.2747 71.8091 51.8172 72.6535 50.9187 74.0474Z" fill="white"/>
<path d="M100.926 61.3381C100.752 60.0301 99.5821 59.0053 98.2626 59.0053H84.2646C82.9032 59.0053 81.7954 60.113 81.7954 61.4746V64.7852C81.7954 66.1468 82.9032 67.2546 84.2646 67.2546H91.1763C91.2532 67.2546 91.3116 67.2653 91.3527 67.2778C90.561 69.002 89.3054 70.4743 87.7159 71.5408C86.0162 72.681 84.0398 73.2838 82.0001 73.2838C77.7959 73.2838 73.956 70.6521 72.4265 66.7293C72.4148 66.6921 72.401 66.6559 72.385 66.6208C71.9415 65.4447 71.7167 64.2269 71.7167 63.0002C71.7167 61.739 71.9528 60.4905 72.4187 59.2892C73.9668 55.2967 77.7276 52.7169 81.9998 52.7169C84.0575 52.7169 86.0461 53.3291 87.7508 54.4875C87.7543 54.4898 87.7576 54.4922 87.7611 54.4944L87.8142 54.5294C87.8199 54.5332 87.8256 54.5369 87.8314 54.5405C88.3047 54.8383 88.8417 54.9956 89.3846 54.9956C90.107 54.9956 90.7676 54.7143 91.2435 54.2048L93.9767 51.289C94.4417 50.791 94.6614 50.1386 94.5793 49.4992C94.5007 48.8878 94.1522 48.3349 93.6184 47.969C93.6053 47.9575 93.5916 47.9465 93.5778 47.9359C90.2331 45.361 86.2294 44 81.9998 44C74.955 44 68.5229 47.8698 65.2135 54.0992C63.7654 56.8253 63 59.9031 63 63.0002C63 66.1128 63.7719 69.2034 65.2322 71.938C68.5474 78.1445 74.9723 82 81.9998 82C86.5244 82 90.9101 80.3782 94.3493 77.4336C98.5758 73.8138 101 68.5529 101 63.0001C101 61.9241 100.934 61.3952 100.926 61.3381ZM93.1372 76.0184C90.0357 78.6742 86.4494 79.8797 82.3689 79.8797C76.0304 79.8797 70.2352 76.4017 67.2448 70.803C65.9281 68.3376 65.2322 65.5506 65.2322 62.7429C65.2322 59.9496 65.9224 57.1739 67.2278 54.716C70.2133 49.0968 76.0149 45.6059 82.3689 45.6059C86.1708 45.6059 89.77 46.825 92.7799 49.1318C93.0246 49.2537 93.2215 49.5061 92.9852 49.7589L89.8831 52.932C89.7282 53.0978 89.5264 53.1327 89.3846 53.1327C89.1987 53.1327 89.0025 53.0744 88.831 52.9683L88.7929 52.9431C86.7794 51.5762 84.4304 50.8537 81.9999 50.8537C79.5024 50.8537 77.104 51.6075 75.0639 53.0339C73.0734 54.4256 71.558 56.3556 70.6818 58.6156C70.1322 60.0322 69.8536 61.5074 69.8536 63C69.8536 64.4739 70.1268 65.9343 70.6656 67.341C71.5362 69.6124 73.0507 71.5531 75.0455 72.9534C77.0896 74.3883 79.4945 75.1467 82.0002 75.1467C84.4108 75.1467 86.7461 74.4347 88.7539 73.0878C90.665 71.8055 92.1675 70.0246 93.0989 67.9375C93.1058 67.9222 93.1124 67.9066 93.1182 67.8909C93.3372 67.3189 93.2745 66.7174 92.9465 66.2407C92.5806 65.7089 91.9189 65.3914 91.1762 65.3914H84.2645C84.2645 65.3914 83.987 65.1138 83.987 64.7852V61.4745C83.987 61.1459 84.2646 60.8683 84.5931 60.8683H98.2624C98.64 60.8683 99.0294 61.2093 99.0789 61.5807C99.0795 61.5853 99.1367 62.0476 99.1367 63C99.1367 68.008 96.95 72.753 93.1372 76.0184Z" fill="white"/>
<path d="M99.9495 61.6466C99.7832 60.3976 98.6659 59.419 97.4059 59.419H84.0396C82.7395 59.419 81.6818 60.4767 81.6818 61.7769V64.9382C81.6818 66.2383 82.7395 67.2961 84.0396 67.2961H90.6394C90.7128 67.2961 90.7686 67.3063 90.8078 67.3182C90.0518 68.9647 88.8529 70.3705 87.3351 71.3889C85.7121 72.4776 83.8249 73.0532 81.8772 73.0532C77.8627 73.0532 74.1961 70.5403 72.7356 66.7945C72.7244 66.7589 72.7112 66.7244 72.6959 66.6909C72.2725 65.5679 72.0578 64.405 72.0578 63.2337C72.0578 62.0294 72.2833 60.8372 72.7281 59.6901C74.2064 55.8778 77.7975 53.4143 81.8769 53.4143C83.8418 53.4143 85.7406 53.9989 87.3684 55.1051C87.3717 55.1073 87.375 55.1095 87.3783 55.1117L87.429 55.1451C87.4344 55.1487 87.4399 55.1523 87.4454 55.1557C87.8973 55.44 88.4102 55.5903 88.9285 55.5903C89.6183 55.5903 90.2492 55.3217 90.7036 54.8352L93.3134 52.0509C93.7575 51.5754 93.9672 50.9525 93.8888 50.3419C93.8138 49.7581 93.4811 49.2301 92.9713 48.8807C92.9588 48.8698 92.9458 48.8593 92.9326 48.8491C89.7387 46.3904 85.9157 45.0908 81.8769 45.0908C75.15 45.0908 69.0081 48.786 65.848 54.7343C64.4652 57.3374 63.7344 60.2764 63.7344 63.2337C63.7344 66.2058 64.4714 69.157 65.8659 71.7682C69.0315 77.6946 75.1665 81.3761 81.8769 81.3761C86.1974 81.3761 90.3852 79.8275 93.6692 77.0158C97.7051 73.5593 100.02 68.5359 100.02 63.2336C100.02 62.2062 99.9568 61.7011 99.9495 61.6466ZM92.5119 75.6644C89.5502 78.2004 86.1258 79.3515 82.2293 79.3515C76.1769 79.3515 70.6432 76.0305 67.7876 70.6844C66.5304 68.3303 65.8659 65.669 65.8659 62.988C65.8659 60.3207 66.5249 57.6703 67.7714 55.3233C70.6222 49.9576 76.1621 46.6243 82.2293 46.6243C85.8597 46.6243 89.2966 47.7883 92.1706 49.9911C92.4043 50.1075 92.5923 50.3485 92.3667 50.5899L89.4045 53.6198C89.2566 53.7781 89.064 53.8114 88.9285 53.8114C88.751 53.8114 88.5637 53.7557 88.3999 53.6544L88.3635 53.6304C86.4408 52.3252 84.1978 51.6353 81.877 51.6353C79.4922 51.6353 77.202 52.3551 75.254 53.7171C73.3533 55.0459 71.9062 56.8889 71.0696 59.0469C70.5448 60.3996 70.2788 61.8083 70.2788 63.2335C70.2788 64.6409 70.5396 66.0354 71.0541 67.3786C71.8855 69.5475 73.3316 71.4007 75.2364 72.7377C77.1883 74.1079 79.4847 74.8321 81.8773 74.8321C84.1792 74.8321 86.4091 74.1522 88.3263 72.8661C90.1512 71.6417 91.5859 69.9411 92.4752 67.9482C92.4818 67.9336 92.4881 67.9187 92.4937 67.9037C92.7028 67.3575 92.643 66.7831 92.3298 66.3279C91.9804 65.8201 91.3485 65.517 90.6393 65.517H84.0395C84.0395 65.517 83.7745 65.2519 83.7745 64.9381V61.7769C83.7745 61.4631 84.0396 61.198 84.3532 61.198H97.4058C97.7664 61.198 98.1382 61.5236 98.1855 61.8782C98.186 61.8826 98.2406 62.3241 98.2406 63.2334C98.2406 68.0155 96.1525 72.5464 92.5119 75.6644Z" fill="white"/>
</g>
</svg>
