<svg width="32" height="32" viewBox="0 0 32 32" fill="none" xmlns="http://www.w3.org/2000/svg">
<path d="M15.9998 31.9999C24.8363 31.9999 31.9996 24.8365 31.9996 16.0001C31.9996 7.1636 24.8363 0.000244141 15.9998 0.000244141C7.16336 0.000244141 0 7.1636 0 16.0001C0 24.8365 7.16336 31.9999 15.9998 31.9999Z" fill="#5DBA45"/>
<path fill-rule="evenodd" clip-rule="evenodd" d="M23.2545 11.7894H8.74481C8.57552 11.7894 8.42666 11.6758 8.37979 11.511C8.33296 11.3461 8.39939 11.1697 8.5427 11.0784L15.7976 6.45889C15.9211 6.38024 16.0781 6.38024 16.2017 6.45889L23.4411 11.0686C23.5569 11.1345 23.6351 11.2602 23.6351 11.4044C23.6351 11.617 23.4651 11.7894 23.2553 11.7894H23.2545ZM21.936 11.0195L15.9997 7.2396L10.0634 11.0195H21.936Z" fill="white"/>
<path fill-rule="evenodd" clip-rule="evenodd" d="M24.1472 20.7911H23.7611V19.6444C23.7611 19.4333 23.5882 19.2621 23.375 19.2621H22.9888V13.4522H23.375C23.5882 13.4522 23.7611 13.281 23.7611 13.07C23.7611 12.8589 23.5882 12.6877 23.375 12.6877H8.62505C8.41183 12.6877 8.23892 12.8589 8.23892 13.07C8.23892 13.281 8.41183 13.4522 8.62505 13.4522H9.01117V19.2621H8.62505C8.41183 19.2621 8.23892 19.4333 8.23892 19.6444V20.7911H7.8528C7.63958 20.7911 7.46667 20.9622 7.46667 21.1733V23.0845C7.46667 23.2955 7.63958 23.4667 7.8528 23.4667H24.1472C24.3604 23.4667 24.5333 23.2955 24.5333 23.0845V21.1733C24.5333 20.9622 24.3604 20.7911 24.1472 20.7911ZM22.2166 19.2619H21.4443V13.452H22.2166V19.2619ZM19.1534 13.452V19.2619H20.6721V13.452H19.1534ZM17.6089 19.2619V13.452H18.3811V19.2619H17.6089ZM15.1634 13.452V19.2619H16.8366V13.452H15.1634ZM13.6189 19.2619V13.452H14.3912V19.2619H13.6189ZM11.3279 13.452V19.2619H12.8466V13.452H11.3279ZM9.78343 13.452H10.5557V19.2619H9.78343V13.452ZM8.23892 22.7021H23.7611V21.5554H12.6686C12.4554 21.5554 12.2825 21.3842 12.2825 21.1732C12.2825 20.9621 12.4554 20.7909 12.6686 20.7909H22.9888V20.0265H9.01116V20.7909H11.3515C11.5647 20.7909 11.7376 20.9621 11.7376 21.1732C11.7376 21.3842 11.5647 21.5554 11.3515 21.5554H8.23892V22.7021Z" fill="white"/>
</svg>
