<svg width="32" height="32" viewBox="0 0 32 32" fill="none" xmlns="http://www.w3.org/2000/svg">
<path d="M15.9998 31.9999C24.8363 31.9999 31.9996 24.8365 31.9996 16.0001C31.9996 7.1636 24.8363 0.000244141 15.9998 0.000244141C7.16336 0.000244141 0 7.1636 0 16.0001C0 24.8365 7.16336 31.9999 15.9998 31.9999Z" fill="#121212"/>
<path d="M20.3333 5.33325H11.6667C10.7466 5.33439 10.0011 6.07983 10 6.99992V24.9999C10.0011 25.92 10.7466 26.6654 11.6667 26.6666H20.3333C21.2534 26.6654 21.9989 25.92 22 24.9999V6.99992C21.9989 6.07983 21.2534 5.33439 20.3333 5.33325ZM10.6667 8.33325H21.3333V21.9999H10.6667V8.33325ZM11.6667 5.99992H20.3333C20.8856 5.99992 21.3333 6.44767 21.3333 6.99992V7.66659H10.6667V6.99992C10.6667 6.44767 11.1144 5.99992 11.6667 5.99992ZM20.3333 25.9999H11.6667C11.1144 25.9999 10.6667 25.5522 10.6667 24.9999V22.6666H21.3333V24.9999C21.3333 25.5522 20.8856 25.9999 20.3333 25.9999Z" fill="white"/>
<path d="M16 23C15.2637 23 14.6667 23.597 14.6667 24.3333C14.6667 25.0697 15.2637 25.6667 16 25.6667C16.7363 25.6667 17.3333 25.0697 17.3333 24.3333C17.3333 23.597 16.7363 23 16 23ZM16 25C15.6318 25 15.3333 24.7015 15.3333 24.3333C15.3333 23.9652 15.6318 23.6667 16 23.6667C16.3682 23.6667 16.6667 23.9652 16.6667 24.3333C16.6667 24.7015 16.3682 25 16 25Z" fill="white"/>
<path d="M12 25H11.6667C11.4826 25 11.3333 25.1493 11.3333 25.3333C11.3333 25.5174 11.4826 25.6667 11.6667 25.6667H12C12.1841 25.6667 12.3333 25.5174 12.3333 25.3333C12.3333 25.1493 12.1841 25 12 25Z" fill="white"/>
<path d="M20 7.33317H20.3333C20.5174 7.33317 20.6667 7.18392 20.6667 6.99984C20.6667 6.81576 20.5174 6.6665 20.3333 6.6665H20C19.8159 6.6665 19.6667 6.81576 19.6667 6.99984C19.6667 7.18392 19.8159 7.33317 20 7.33317Z" fill="white"/>
<path d="M20.6667 23.6665C20.4826 23.6665 20.3333 23.8158 20.3333 23.9998V24.9998H19.3333C19.1493 24.9998 19 25.1491 19 25.3332C19 25.5173 19.1493 25.6665 19.3333 25.6665H20.3333C20.7015 25.6665 21 25.368 21 24.9998V23.9998C21 23.8158 20.8507 23.6665 20.6667 23.6665Z" fill="white"/>
</svg>
