<svg width="18" height="18" viewBox="0 0 18 18" fill="none" xmlns="http://www.w3.org/2000/svg">
<path fill-rule="evenodd" clip-rule="evenodd" d="M16.2548 5.87198H1.74512C1.57583 5.87198 1.42697 5.75843 1.3801 5.59352C1.33326 5.42861 1.3997 5.25218 1.54301 5.16089L8.79787 0.540445C8.92147 0.461779 9.07845 0.461779 9.20205 0.540445L16.4415 5.15104C16.5572 5.217 16.6354 5.34271 16.6354 5.48695C16.6354 5.69956 16.4654 5.87198 16.2556 5.87198H16.2548ZM14.936 5.10176L8.99976 1.3208L3.06348 5.10176H14.936Z" fill="white"/>
<path fill-rule="evenodd" clip-rule="evenodd" d="M17.1473 14.8753H16.7612V13.7283C16.7612 13.5172 16.5883 13.346 16.3751 13.346H15.989V7.53467H16.3751C16.5883 7.53467 16.7612 7.36346 16.7612 7.15234C16.7612 6.94122 16.5883 6.77002 16.3751 6.77002H1.62517C1.41195 6.77002 1.23904 6.94122 1.23904 7.15234C1.23904 7.36346 1.41195 7.53467 1.62517 7.53467H2.01129V13.346H1.62517C1.41195 13.346 1.23904 13.5172 1.23904 13.7283V14.8753H0.85292C0.639703 14.8753 0.466797 15.0465 0.466797 15.2577V17.1693C0.466797 17.3804 0.639703 17.5516 0.85292 17.5516H17.1473C17.3605 17.5516 17.5334 17.3804 17.5334 17.1693V15.2577C17.5334 15.0465 17.3605 14.8753 17.1473 14.8753ZM15.2166 13.3457H14.4443V7.53467H15.2166V13.3457ZM12.1533 7.53467V13.3457H13.6721V7.53467H12.1533ZM10.6089 13.3457V7.53467H11.3811V13.3457H10.6089ZM8.16357 7.53467V13.3457H9.83679V7.53467H8.16357ZM6.61914 13.3457V7.53467H7.39142V13.3457H6.61914ZM4.32812 7.53467V13.3457H5.84686V7.53467H4.32812ZM2.78369 7.53467H3.55591V13.3457H2.78369V7.53467ZM1.23926 16.7866H16.7615V15.6396H5.669C5.45578 15.6396 5.28287 15.4684 5.28287 15.2573C5.28287 15.0462 5.45578 14.875 5.669 14.875H15.9892V14.1104H2.01151V14.875H4.35185C4.56507 14.875 4.73797 15.0462 4.73797 15.2573C4.73797 15.4684 4.56507 15.6396 4.35185 15.6396H1.23926V16.7866Z" fill="white"/>
</svg>
