<svg width="120" height="120" viewBox="0 0 120 120" fill="none" xmlns="http://www.w3.org/2000/svg">
<mask id="mask0" mask-type="alpha" maskUnits="userSpaceOnUse" x="0" y="-1" width="120" height="121">
<circle cx="60" cy="59.999" r="60" fill="black"/>
</mask>
<g mask="url(#mask0)">
<circle cx="44.6705" cy="72.4839" r="17.5718" fill="#FAC594"/>
<ellipse rx="4.94208" ry="5.4912" transform="matrix(-1 0 0 1 77.0687 62.5996)" fill="#FAC594"/>
<ellipse rx="4.94208" ry="5.4912" transform="matrix(-1 0 0 1 83.658 62.5996)" fill="#FAC594"/>
<path d="M93.1435 31.3003H36.6895C33.7413 31.3037 31.3518 33.6926 31.3484 36.6414V59.948C26.0752 65.3265 24.5427 73.3436 27.4616 80.2874C30.3798 87.2312 37.1792 91.7465 44.7118 91.7425C54.5848 91.7425 62.6957 84.0557 63.3759 74.353H93.1435C96.0917 74.3495 98.4806 71.9601 98.484 69.0125V36.6414C98.4806 33.6932 96.0917 31.3037 93.1435 31.3003V31.3003ZM44.7118 89.9746C35.3543 89.9746 27.7683 82.3885 27.7683 73.0311C27.7683 63.6731 35.3543 56.0876 44.7123 56.0876C54.0697 56.0876 61.6558 63.6737 61.6558 73.0311C61.6449 82.3845 54.0651 89.9642 44.7118 89.9746ZM96.7161 69.0125C96.7144 70.9847 95.1157 72.5834 93.1435 72.5857H63.4179C63.2528 65.4951 59.0909 59.1078 52.6707 56.0928C46.2512 53.0784 38.6778 53.9549 33.1163 58.3562V36.6414C33.1186 34.6686 34.7173 33.0705 36.6895 33.0682H93.1435C95.1157 33.0705 96.7144 34.6686 96.7161 36.6414V69.0125Z" fill="#30394A"/>
<path d="M82.7812 55.9563C81.7885 55.9551 80.8084 56.179 79.9141 56.61C77.1322 55.2726 73.7955 56.0357 71.8711 58.4493C69.9473 60.8629 69.9473 64.2859 71.8711 66.6995C73.7955 69.1131 77.1322 69.8762 79.9141 68.5388C82.3669 69.718 85.2915 69.276 87.2856 67.4241C89.2796 65.5721 89.9368 62.6884 88.9418 60.1551C87.9468 57.6223 85.5027 55.9569 82.7812 55.9569V55.9563ZM77.0471 67.4246C75.1796 67.4269 73.4761 66.3571 72.6682 64.6732C71.8596 62.9899 72.0898 60.9912 73.2603 59.5358C74.4303 58.0798 76.3323 57.4255 78.1503 57.8531C76.8796 59.0956 76.1637 60.7979 76.1637 62.575C76.1637 64.3521 76.8796 66.0538 78.1503 67.2963C77.7889 67.3815 77.4188 67.4241 77.0471 67.4246ZM81.8973 62.5744C81.8967 64.119 81.1606 65.571 79.9141 66.4831C78.6676 65.571 77.931 64.119 77.931 62.5744C77.931 61.0298 78.6676 59.5778 79.9141 58.6657C81.1601 59.5778 81.8967 61.0298 81.8973 62.5744ZM82.7812 67.4246C82.41 67.4241 82.0394 67.3815 81.678 67.2963C82.9487 66.0538 83.6652 64.3515 83.6652 62.5744C83.6652 60.7973 82.9487 59.095 81.678 57.8531C83.4948 57.4284 85.3945 58.0839 86.5627 59.5387C87.7316 60.9936 87.9612 62.9893 87.1549 64.6721C86.3481 66.3548 84.6475 67.4252 82.7812 67.4246Z" fill="#30394A"/>
<path d="M38.049 41.1507H61.6342C62.1228 41.1507 62.5182 40.7548 62.5182 40.2668C62.5182 39.7787 62.1228 39.3828 61.6342 39.3828H38.049C37.5604 39.3828 37.165 39.7787 37.165 40.2668C37.165 40.7548 37.5604 41.1507 38.049 41.1507Z" fill="#30394A"/>
<path d="M67.3922 39.3828H64.8376C64.3495 39.3828 63.9536 39.7787 63.9536 40.2668C63.9536 40.7548 64.3495 41.1507 64.8376 41.1507H67.3922C67.8802 41.1507 68.2761 40.7548 68.2761 40.2668C68.2761 39.7787 67.8802 39.3828 67.3922 39.3828Z" fill="#30394A"/>
<path d="M39.1505 43.8394H38.049C37.5604 43.8394 37.165 44.2347 37.165 44.7233C37.165 45.2113 37.5604 45.6073 38.049 45.6073H39.1505C39.6391 45.6073 40.0344 45.2113 40.0344 44.7233C40.0344 44.2347 39.6391 43.8394 39.1505 43.8394Z" fill="#30394A"/>
<path d="M57.1777 43.8394H42.4504C41.9618 43.8394 41.5664 44.2347 41.5664 44.7233C41.5664 45.2113 41.9618 45.6073 42.4504 45.6073H57.1777C57.6657 45.6073 58.0616 45.2113 58.0616 44.7233C58.0616 44.2347 57.6657 43.8394 57.1777 43.8394Z" fill="#30394A"/>
<path d="M67.3922 43.8394H60.381C59.8924 43.8394 59.4971 44.2347 59.4971 44.7233C59.4971 45.2113 59.8924 45.6073 60.381 45.6073H67.3922C67.8802 45.6073 68.2761 45.2113 68.2761 44.7233C68.2761 44.2347 67.8802 43.8394 67.3922 43.8394Z" fill="#30394A"/>
<path d="M52.2573 67.7331L41.5895 76.4121L37.282 71.3679C36.9638 70.999 36.4084 70.957 36.0384 71.273C35.6683 71.5889 35.6234 72.1443 35.9377 72.516L40.8057 78.2162C41.117 78.5817 41.6632 78.6312 42.0355 78.3279L53.3738 69.1045C53.7525 68.7961 53.81 68.2396 53.5015 67.8609C53.1937 67.4822 52.6372 67.4247 52.2579 67.7331H52.2573Z" fill="#30394A"/>
<circle opacity="0.2" cx="49.6407" cy="16.6406" r="5.37145" transform="rotate(165 49.6407 16.6406)" stroke="#F6882F" stroke-width="5"/>
<g opacity="0.2">
<circle cx="110.027" cy="56.5704" r="4.04427" transform="rotate(165 110.027 56.5704)" fill="#CC2D78"/>
<circle cx="110.027" cy="56.5704" r="4.04427" transform="rotate(165 110.027 56.5704)" stroke="#F6882F"/>
</g>
<g opacity="0.2">
<circle cx="21.2579" cy="58.2575" r="1.84341" transform="rotate(165 21.2579 58.2575)" fill="#CC2D78"/>
<circle cx="21.2579" cy="58.2575" r="1.84341" transform="rotate(165 21.2579 58.2575)" stroke="#F6882F"/>
</g>
<g opacity="0.2">
<circle cx="79.2763" cy="92.8126" r="4.04427" transform="rotate(165 79.2763 92.8126)" fill="#FFE000"/>
<circle cx="79.2763" cy="92.8126" r="4.04427" transform="rotate(165 79.2763 92.8126)" stroke="#F6882F"/>
</g>
</g>
</svg>
