<svg width="120" height="120" viewBox="0 0 120 120" fill="none" xmlns="http://www.w3.org/2000/svg">
<mask id="mask0" mask-type="alpha" maskUnits="userSpaceOnUse" x="0" y="0" width="120" height="120">
<circle cx="60" cy="60" r="60" fill="black"/>
</mask>
<g mask="url(#mask0)">
<circle cx="60" cy="60" r="60" fill="#FAC594"/>
<path d="M60.4278 51.7532C55.8205 51.7532 52.085 55.4887 52.085 60.096C52.085 64.7039 55.8205 68.4388 60.4278 68.4388C65.0357 68.4388 68.7707 64.7039 68.7707 60.096C68.7654 55.491 65.0334 51.7584 60.4278 51.7532ZM60.4278 66.0552C57.1369 66.0552 54.4686 63.3875 54.4686 60.096C54.4686 56.8051 57.1369 54.1368 60.4278 54.1368C63.7193 54.1368 66.387 56.8051 66.387 60.096C66.3835 63.3858 63.7176 66.0517 60.4278 66.0552Z" fill="white"/>
<path d="M35.3988 48.1774H37.7825V45.7937H34.207C33.5488 45.7937 33.0151 46.3273 33.0151 46.9855V50.561H35.3988V48.1774Z" fill="white"/>
<path d="M35.3988 69.6301H33.0151V73.2056C33.0151 73.8644 33.5488 74.3975 34.207 74.3975H37.7825V72.0138H35.3988V69.6301Z" fill="white"/>
<path d="M28.248 42.218V77.973C28.248 78.6318 28.7817 79.1648 29.4399 79.1648H91.4153C92.074 79.1648 92.6071 78.6318 92.6071 77.973V42.218C92.6071 41.5598 92.074 41.0261 91.4153 41.0261H29.4399C28.7817 41.0261 28.248 41.5598 28.248 42.218ZM30.6317 43.4098H90.2234V76.7812H30.6317V43.4098Z" fill="white"/>
<path d="M86.6477 54.1365C82.7003 54.133 79.5007 50.9335 79.4967 46.9855C79.4967 46.3273 78.9636 45.7937 78.3048 45.7937H42.5498C41.8916 45.7937 41.358 46.3273 41.358 46.9855C41.3545 50.9335 38.1549 54.133 34.207 54.1365C33.5488 54.1365 33.0151 54.6702 33.0151 55.3284V64.863C33.0151 65.5218 33.5488 66.0549 34.207 66.0549C38.1549 66.059 41.3545 69.2585 41.358 73.2059C41.358 73.8647 41.8916 74.3977 42.5498 74.3977H78.3048C78.9636 74.3977 79.4967 73.8647 79.4967 73.2059C79.5007 69.2585 82.7003 66.059 86.6477 66.0549C87.3064 66.0549 87.8395 65.5218 87.8395 64.863V55.3284C87.8395 54.6702 87.3064 54.1365 86.6477 54.1365ZM85.4558 63.7451C81.1384 64.2968 77.7386 67.6966 77.1869 72.0141H43.6677C43.116 67.6966 39.7169 64.2968 35.3988 63.7451V56.4463C39.7169 55.8946 43.116 52.4954 43.6677 48.1774H77.1869C77.7386 52.4954 81.1384 55.8946 85.4558 56.4463V63.7451Z" fill="white"/>
<path d="M86.6478 45.7937H83.0723V48.1774H85.4559V50.561H87.8396V46.9855C87.8396 46.3273 87.3065 45.7937 86.6478 45.7937Z" fill="white"/>
<path d="M85.4559 72.0138H83.0723V74.3975H86.6478C87.3065 74.3975 87.8396 73.8644 87.8396 73.2056V69.6301H85.4559V72.0138Z" fill="white"/>
<path d="M44.3379 32.2226L45.5297 34.2844C53.6357 29.6102 63.4666 29.0155 72.0772 32.6777L67.0462 35.1923L68.1117 37.3257L75.2627 33.7502C75.5467 33.6105 75.7632 33.3626 75.8645 33.0629C75.9657 32.7626 75.9436 32.4344 75.8028 32.151L72.2273 25L70.0939 26.0656L72.1196 30.1177C63.0203 26.5643 52.7989 27.3383 44.3379 32.2226Z" fill="white"/>
<path d="M75.3253 86.7778L74.1335 84.7159C66.0281 89.3896 56.1978 89.9849 47.5878 86.3227L52.6188 83.8075L51.5532 81.6741L44.4022 85.2496C43.8127 85.5441 43.5735 86.2604 43.8686 86.8494L47.4441 94.0004L49.5769 92.9348L47.5512 88.8827C56.6488 92.4338 66.8673 91.6598 75.3253 86.7778Z" fill="white"/>
</g>
</svg>
