<svg width="120" height="120" viewBox="0 0 120 120" fill="none" xmlns="http://www.w3.org/2000/svg">
<mask id="mask0" mask-type="alpha" maskUnits="userSpaceOnUse" x="0" y="0" width="120" height="120">
<circle cx="60" cy="60" r="60" fill="black"/>
</mask>
<g mask="url(#mask0)">
<circle cx="60" cy="60" r="60" fill="#FAC594"/>
<path d="M73.4062 22.2188H46.5938C44.9781 22.2204 43.429 22.8629 42.2866 24.0053C41.1441 25.1478 40.5016 26.6968 40.5 28.3125V91.6875C40.5016 93.3032 41.1441 94.8522 42.2866 95.9947C43.429 97.1371 44.9781 97.7796 46.5938 97.7812H73.4062C75.0219 97.7796 76.5709 97.1371 77.7134 95.9947C78.8559 94.8522 79.4984 93.3032 79.5 91.6875V28.3125C79.4984 26.6968 78.8559 25.1478 77.7134 24.0053C76.5709 22.8629 75.0219 22.2204 73.4062 22.2188ZM65.751 24.6562L65.1416 27.0938H54.8584L54.249 24.6562H65.751ZM77.0625 91.6875C77.0612 92.6568 76.6756 93.586 75.9902 94.2714C75.3048 94.9568 74.3756 95.3425 73.4062 95.3438H46.5938C45.6244 95.3425 44.6952 94.9568 44.0098 94.2714C43.3244 93.586 42.9388 92.6568 42.9375 91.6875V28.3125C42.9388 27.3432 43.3244 26.414 44.0098 25.7286C44.6952 25.0432 45.6244 24.6575 46.5938 24.6562H51.7354L52.7241 28.608C52.79 28.8717 52.9421 29.1058 53.1563 29.2731C53.3705 29.4403 53.6345 29.5312 53.9062 29.5312H66.0938C66.3655 29.5312 66.6295 29.4403 66.8437 29.2731C67.0579 29.1058 67.21 28.8717 67.2759 28.608L68.2646 24.6562H73.4062C74.3756 24.6575 75.3048 25.0432 75.9902 25.7286C76.6756 26.414 77.0612 27.3432 77.0625 28.3125V91.6875Z" fill="white"/>
<path d="M55.125 90.4688H46.5938C46.2705 90.4688 45.9605 90.5972 45.732 90.8257C45.5034 91.0543 45.375 91.3643 45.375 91.6875C45.375 92.0107 45.5034 92.3207 45.732 92.5493C45.9605 92.7778 46.2705 92.9062 46.5938 92.9062H55.125C55.4482 92.9062 55.7582 92.7778 55.9868 92.5493C56.2153 92.3207 56.3438 92.0107 56.3438 91.6875C56.3438 91.3643 56.2153 91.0543 55.9868 90.8257C55.7582 90.5972 55.4482 90.4688 55.125 90.4688Z" fill="white"/>
<path d="M59.8477 90.4688H58.6289C58.3057 90.4688 57.9957 90.5972 57.7671 90.8257C57.5386 91.0543 57.4102 91.3643 57.4102 91.6875C57.4102 92.0107 57.5386 92.3207 57.7671 92.5493C57.9957 92.7778 58.3057 92.9062 58.6289 92.9062H59.8477C60.1709 92.9062 60.4809 92.7778 60.7094 92.5493C60.938 92.3207 61.0664 92.0107 61.0664 91.6875C61.0664 91.3643 60.938 91.0543 60.7094 90.8257C60.4809 90.5972 60.1709 90.4688 59.8477 90.4688Z" fill="white"/>
<path d="M73.4062 67.3125H69.75V59.066C70.1335 58.7237 70.4403 58.3043 70.6504 57.8351C70.8604 57.366 70.9689 56.8578 70.9688 56.3438V52.6875C70.9688 52.6803 70.9678 52.6733 70.9677 52.6662C70.9677 52.6502 70.9662 52.6343 70.9652 52.6185C70.9634 52.5868 70.9607 52.5554 70.9566 52.5243C70.9546 52.5091 70.9523 52.4948 70.9499 52.48C70.9438 52.4448 70.9361 52.4104 70.9272 52.3764C70.9244 52.3661 70.9221 52.3557 70.9192 52.3459C70.9057 52.2989 70.8893 52.2527 70.87 52.2076L68.2819 46.1175C68.1884 45.8973 68.0322 45.7095 67.8327 45.5775C67.6333 45.4454 67.3994 45.375 67.1602 45.375H52.8398C52.6007 45.375 52.3668 45.4453 52.1674 45.5773C51.9679 45.7092 51.8117 45.897 51.7181 46.1171L49.13 52.2072C49.1107 52.2522 49.0943 52.2984 49.0808 52.3455C49.0779 52.3557 49.0756 52.3661 49.0728 52.376C49.0639 52.4099 49.0562 52.4444 49.0501 52.4795C49.0477 52.4948 49.0454 52.5091 49.0434 52.5239C49.0393 52.5544 49.0366 52.5863 49.0348 52.618C49.0338 52.6333 49.0326 52.6497 49.0323 52.6657C49.0323 52.6729 49.0312 52.6799 49.0312 52.687V56.3433C49.0311 56.8573 49.1396 57.3655 49.3496 57.8347C49.5597 58.3038 49.8665 58.7233 50.25 59.0655V67.3125H46.5938C46.2705 67.3125 45.9605 67.4409 45.732 67.6695C45.5034 67.898 45.375 68.208 45.375 68.5312C45.375 68.8545 45.5034 69.1645 45.732 69.393C45.9605 69.6216 46.2705 69.75 46.5938 69.75H73.4062C73.7295 69.75 74.0395 69.6216 74.268 69.393C74.4966 69.1645 74.625 68.8545 74.625 68.5312C74.625 68.208 74.4966 67.898 74.268 67.6695C74.0395 67.4409 73.7295 67.3125 73.4062 67.3125ZM63.6562 56.3438C63.6562 56.667 63.5278 56.977 63.2993 57.2055C63.0707 57.4341 62.7607 57.5625 62.4375 57.5625C62.1143 57.5625 61.8043 57.4341 61.5757 57.2055C61.3472 56.977 61.2188 56.667 61.2188 56.3438V53.9062H63.6562V56.3438ZM58.7812 56.3438C58.7812 56.667 58.6528 56.977 58.4243 57.2055C58.1957 57.4341 57.8857 57.5625 57.5625 57.5625C57.2393 57.5625 56.9293 57.4341 56.7007 57.2055C56.4722 56.977 56.3438 56.667 56.3438 56.3438V53.9062H58.7812V56.3438ZM53.9062 56.3438C53.9062 56.667 53.7778 56.977 53.5493 57.2055C53.3207 57.4341 53.0107 57.5625 52.6875 57.5625C52.3643 57.5625 52.0543 57.4341 51.8257 57.2055C51.5972 56.977 51.4688 56.667 51.4688 56.3438V53.9062H53.9062V56.3438ZM66.0938 53.9062H68.5312V56.3438C68.5312 56.667 68.4028 56.977 68.1743 57.2055C67.9457 57.4341 67.6357 57.5625 67.3125 57.5625C66.9893 57.5625 66.6793 57.4341 66.4507 57.2055C66.2222 56.977 66.0938 56.667 66.0938 56.3438V53.9062ZM53.646 47.8125H66.354L67.9079 51.4688H52.0921L53.646 47.8125ZM58.7812 67.3125V63.6562H61.2188V67.3125H58.7812ZM63.6562 67.3125V62.4375C63.6562 62.1143 63.5278 61.8043 63.2993 61.5757C63.0707 61.3472 62.7607 61.2188 62.4375 61.2188H57.5625C57.2393 61.2188 56.9293 61.3472 56.7007 61.5757C56.4722 61.8043 56.3438 62.1143 56.3438 62.4375V67.3125H52.6875V60C53.5875 60.0006 54.4559 59.6679 55.125 59.066C55.7945 59.6673 56.6626 60 57.5625 60C58.4624 60 59.3305 59.6673 60 59.066C60.6695 59.6673 61.5376 60 62.4375 60C63.3374 60 64.2055 59.6673 64.875 59.066C65.5441 59.6679 66.4125 60.0006 67.3125 60V67.3125H63.6562Z" fill="white"/>
</g>
</svg>
