<svg width="120" height="120" viewBox="0 0 120 120" fill="none" xmlns="http://www.w3.org/2000/svg">
<mask id="mask0" mask-type="alpha" maskUnits="userSpaceOnUse" x="0" y="-1" width="120" height="121">
<circle cx="60" cy="59.999" r="60" fill="black"/>
</mask>
<g mask="url(#mask0)">
<path d="M68.2995 55.6801C67.9509 55.81 67.5869 55.875 67.2188 55.875C66.4649 55.875 65.7564 55.5904 65.2058 55.117L65.2047 55.1242L63.0938 57.9375L60 53.8125V44.5312H51.75V49.0904L53.8672 49.8845C55.4646 50.4847 56.2762 52.2708 55.678 53.8672C55.2263 55.0686 54.0621 55.875 52.7812 55.875C52.4296 55.875 52.0841 55.8111 51.75 55.6935V63.0938H70.3125V54.9252L68.2995 55.6801Z" fill="#FAC594"/>
<path d="M66.1875 49.8638L70.3125 48.3159V44.5312H66.1875V49.8638Z" fill="#F0BC5E"/>
<path d="M53.8125 70.3125H62.0625V76.5H53.8125V70.3125Z" fill="#FAC594"/>
<path d="M51.3416 56.6474C51.8057 56.8196 52.2893 56.9062 52.7812 56.9062C54.49 56.9062 56.0421 55.8307 56.6443 54.2291C57.4425 52.1006 56.3597 49.7184 54.2302 48.9182L40.0628 43.6052C42.4223 42.3821 44.1157 40.0567 44.4601 37.3125H47.625C49.3307 37.3125 50.7188 35.9244 50.7188 34.2188C50.7188 32.5131 49.3307 31.125 47.625 31.125H42.7028C41.1415 29.1852 38.7872 28.0312 36.2812 28.0312C31.7324 28.0312 28.0312 31.7324 28.0312 36.2812C28.0312 39.3853 29.7565 42.0923 32.2965 43.5C29.7565 44.9087 28.0312 47.6157 28.0312 50.7208V87.8438C28.0312 90.1187 29.8813 91.9688 32.1562 91.9688C33.3938 91.9688 34.4931 91.4098 35.25 90.5436C36.0069 91.4098 37.1062 91.9688 38.3438 91.9688C40.6187 91.9688 42.4688 90.1187 42.4688 87.8438V53.3196L51.3416 56.6474ZM48.6562 34.2188C48.6562 34.787 48.1932 35.25 47.625 35.25H38.9811L39.1574 34.8973C39.6844 33.8423 40.7445 33.1875 41.9242 33.1875H47.625C48.1932 33.1875 48.6562 33.6505 48.6562 34.2188ZM36.2812 30.0938C37.6992 30.0938 39.0502 30.5898 40.135 31.454C38.9285 31.8984 37.9117 32.7771 37.3125 33.9754L36.6752 35.25H30.1866C30.6805 32.3285 33.2215 30.0938 36.2812 30.0938ZM30.1866 37.3125H42.3759C41.883 40.234 39.342 42.4688 36.2812 42.4688C33.2205 42.4688 30.6805 40.234 30.1866 37.3125ZM40.4062 87.8438C40.4062 88.9812 39.4812 89.9062 38.3438 89.9062C37.2063 89.9062 36.2812 88.9812 36.2812 87.8438V84.75V69.4267C36.2812 68.3902 36.7969 67.4281 37.659 66.8527L38.9161 66.0153L37.7724 64.2993L36.5153 65.1356C35.0778 66.0947 34.2188 67.6993 34.2188 69.4267V84.75V87.8438C34.2188 88.9812 33.2937 89.9062 32.1562 89.9062C31.0188 89.9062 30.0938 88.9812 30.0938 87.8438V50.7208C30.0938 47.3074 32.8699 44.5312 36.2833 44.5312C36.5287 44.5312 36.7711 44.5746 36.998 44.6591L53.5052 50.8487C54.5705 51.2488 55.1119 52.4399 54.7128 53.5042C54.325 54.5354 53.0917 55.0964 52.0635 54.7138L35.5573 48.5243L34.8334 50.4558L40.4062 52.5461V87.8438Z" fill="#30394A"/>
<path d="M87.7035 43.5C90.2435 42.0923 91.9688 39.3853 91.9688 36.2812C91.9688 31.7324 88.2676 28.0312 83.7188 28.0312C79.1699 28.0312 75.4688 31.7324 75.4688 36.2812C75.4688 39.4668 77.2868 42.2316 79.9372 43.6052L67.2188 48.3758V38.3438C67.2188 36.0688 65.3687 34.2188 63.0938 34.2188C60.8188 34.2188 58.9688 36.0688 58.9688 38.3438V54.1559L63.0938 59.6556L65.4584 56.503C65.9998 56.7608 66.5979 56.9062 67.2188 56.9062C67.7107 56.9062 68.1943 56.8196 68.6604 56.6464L77.5312 53.3196V87.8438C77.5312 90.1187 79.3813 91.9688 81.6562 91.9688C82.8937 91.9688 83.9931 91.4098 84.75 90.5436C85.5069 91.4098 86.6063 91.9688 87.8438 91.9688C90.1187 91.9688 91.9688 90.1187 91.9688 87.8438V50.7208C91.9688 47.6157 90.2435 44.9087 87.7035 43.5ZM83.7188 30.0938C87.1312 30.0938 89.9062 32.8688 89.9062 36.2812C89.9062 37.6776 89.436 38.9635 88.6523 39.9999L86.7805 36.7257C85.9225 35.2232 84.5458 34.095 82.9051 33.5474C82.1873 33.3092 81.4407 33.1875 80.6838 33.1875H78.3686C79.4401 31.3416 81.4345 30.0938 83.7188 30.0938ZM77.5312 36.2812C77.5312 35.9296 77.5673 35.5862 77.6241 35.25H80.6838C81.218 35.25 81.746 35.3356 82.2523 35.5047C83.4114 35.8914 84.3829 36.6876 84.9892 37.7487L87.1054 41.4519C86.1329 42.0934 84.9697 42.4688 83.7188 42.4688C80.3063 42.4688 77.5312 39.6937 77.5312 36.2812ZM63.1072 52.7812H61.0312V42.4688H65.1562V49.2224C63.8734 49.967 63.1092 51.3334 63.1072 52.7812ZM63.0938 36.2812C64.2312 36.2812 65.1562 37.2063 65.1562 38.3438V40.4062H61.0312V38.3438C61.0312 37.2063 61.9563 36.2812 63.0938 36.2812ZM62.0625 54.8438H63.6517C63.7197 54.9603 63.7971 55.0686 63.8754 55.1768L63.0938 56.2184L62.0625 54.8438ZM89.9062 87.8438C89.9062 88.9812 88.9812 89.9062 87.8438 89.9062C86.7063 89.9062 85.7812 88.9812 85.7812 87.8438V84.75V69.4267C85.7812 67.6993 84.9222 66.0957 83.4847 65.1367L82.2276 64.2993L81.0839 66.0153L82.341 66.8527C83.2031 67.4271 83.7188 68.3902 83.7188 69.4267V84.75V87.8438C83.7188 88.9812 82.7937 89.9062 81.6562 89.9062C80.5188 89.9062 79.5938 88.9812 79.5938 87.8438V52.5461L85.1666 50.4558L84.4427 48.5243L67.9396 54.7128C66.897 55.0995 65.6739 54.5354 65.2872 53.5042C64.8881 52.4399 65.4295 51.2488 66.4938 50.8487L82.9979 44.6591C83.2289 44.5746 83.4713 44.5312 83.7167 44.5312C87.1301 44.5312 89.9062 47.3074 89.9062 50.7208V87.8438Z" fill="#30394A"/>
<path d="M68.25 69.2812H47.625C45.9193 69.2812 44.5312 70.6693 44.5312 72.375V88.875C44.5312 90.5807 45.9193 91.9688 47.625 91.9688H68.25C69.9557 91.9688 71.3438 90.5807 71.3438 88.875V72.375C71.3438 70.6693 69.9557 69.2812 68.25 69.2812ZM69.2812 88.875C69.2812 89.4443 68.8182 89.9062 68.25 89.9062H47.625C47.0568 89.9062 46.5938 89.4443 46.5938 88.875V72.375C46.5938 71.8058 47.0568 71.3438 47.625 71.3438H68.25C68.8182 71.3438 69.2812 71.8058 69.2812 72.375V88.875Z" fill="#30394A"/>
<path d="M65.1562 85.7812H67.2188V87.8438H65.1562V85.7812Z" fill="#30394A"/>
<path d="M56.9062 85.7812H58.9688V87.8438H56.9062V85.7812Z" fill="#30394A"/>
<path d="M61.0312 85.7812H63.0938V87.8438H61.0312V85.7812Z" fill="#30394A"/>
<circle opacity="0.2" cx="49.6407" cy="16.6406" r="5.37145" transform="rotate(165 49.6407 16.6406)" stroke="#F6882F" stroke-width="5"/>
<g opacity="0.2">
<circle cx="110.027" cy="56.5704" r="4.04427" transform="rotate(165 110.027 56.5704)" fill="#CC2D78"/>
<circle cx="110.027" cy="56.5704" r="4.04427" transform="rotate(165 110.027 56.5704)" stroke="#F6882F"/>
</g>
<g opacity="0.2">
<circle cx="21.2579" cy="58.2575" r="1.84341" transform="rotate(165 21.2579 58.2575)" fill="#CC2D78"/>
<circle cx="21.2579" cy="58.2575" r="1.84341" transform="rotate(165 21.2579 58.2575)" stroke="#F6882F"/>
</g>
<g opacity="0.2">
<circle cx="79.2763" cy="92.8126" r="4.04427" transform="rotate(165 79.2763 92.8126)" fill="#FFE000"/>
<circle cx="79.2763" cy="92.8126" r="4.04427" transform="rotate(165 79.2763 92.8126)" stroke="#F6882F"/>
</g>
</g>
</svg>
