<svg width="20" height="20" viewBox="0 0 20 20" fill="none" xmlns="http://www.w3.org/2000/svg">
<path d="M11.0642 8.49047C10.9223 8.36889 10.7602 8.28784 10.5779 8.22705C10.3955 8.18652 10.1929 8.16626 9.94969 8.16626H9.01757C8.85547 8.16626 8.75415 8.20679 8.67309 8.26758C8.6123 8.32837 8.57178 8.44995 8.57178 8.61206V11.226C8.57178 11.3476 8.57178 11.4287 8.6123 11.5097C8.63257 11.5908 8.67309 11.6313 8.73388 11.6718C8.79467 11.7124 8.89599 11.7326 9.03784 11.7326H9.96995C10.1321 11.7326 10.2739 11.7124 10.4157 11.6921C10.5373 11.6718 10.6589 11.6313 10.7805 11.5908C10.9021 11.53 11.0034 11.4692 11.0844 11.3881C11.206 11.2666 11.3073 11.145 11.3884 11.0031C11.4694 10.8613 11.5302 10.6992 11.5708 10.5168C11.6113 10.3344 11.6316 10.1521 11.6316 9.92918C11.6316 9.30101 11.4492 8.81469 11.0642 8.49047ZM10.5373 11.0031C10.4765 11.0437 10.4157 11.0842 10.355 11.1045C10.2739 11.1247 10.2131 11.145 10.1523 11.145C10.0915 11.145 9.99022 11.145 9.86864 11.145H9.32152V8.71337H9.80785C10.0307 8.71337 10.2131 8.73364 10.3752 8.79443C10.5373 8.83495 10.6589 8.95653 10.7602 9.1389C10.8615 9.32127 10.9223 9.5847 10.9223 9.92918C10.9021 10.456 10.7805 10.8005 10.5373 11.0031Z" fill="#CC2D78"/>
<path d="M17.5079 3.99189L17.4876 3.97163V3.95137L13.6376 0.101317L13.6173 0.0810537C13.6173 0.0810537 13.597 0.0810537 13.597 0.0607903C13.597 0.0607903 13.5768 0.0607903 13.5768 0.0405268C13.516 0 13.4552 0 13.3741 0H3.83006C3.46532 0 3.12084 0.141844 2.87768 0.385005L2.85742 0.405268C2.61426 0.64843 2.45215 1.01317 2.45215 1.37791V18.6221C2.45215 19.0071 2.61426 19.3516 2.85742 19.5947C3.10058 19.8379 3.46532 20 3.83006 20H16.1705C16.5555 20 16.9 19.8379 17.1431 19.5947C17.3863 19.3516 17.5484 18.9868 17.5484 18.6221V4.19453C17.5484 4.11348 17.5281 4.05269 17.5079 3.99189ZM13.7591 1.45897L16.0489 3.74873H14.367C14.2049 3.74873 14.0428 3.68794 13.9415 3.56636C13.8402 3.46505 13.7591 3.30294 13.7591 3.14083V1.45897ZM16.6771 18.6221C16.6771 18.7639 16.6163 18.8855 16.515 18.9868C16.4137 19.0881 16.2921 19.1489 16.1502 19.1489H3.83006C3.68822 19.1489 3.56664 19.0881 3.46532 19.0071C3.364 18.9058 3.32348 18.7842 3.32348 18.6424V1.35765C3.32348 1.21581 3.38427 1.09422 3.48558 0.992908L3.50585 0.972644C3.60716 0.891591 3.72874 0.8308 3.85032 0.8308H12.9283V3.12057C12.9283 3.52584 13.0904 3.89058 13.3741 4.17427C13.6376 4.43769 14.0226 4.5998 14.4278 4.5998H16.6771V18.6221Z" fill="#CC2D78"/>
<path d="M7.63914 8.44995C7.53782 8.34863 7.41624 8.28784 7.25413 8.24731C7.11229 8.20679 6.88939 8.18652 6.62596 8.18652H5.69384C5.53174 8.18652 5.41015 8.22705 5.34936 8.28784C5.26831 8.34863 5.24805 8.47021 5.24805 8.63232V11.3881C5.24805 11.53 5.28857 11.6313 5.34936 11.7124C5.41015 11.7934 5.51147 11.8137 5.61279 11.8137C5.71411 11.8137 5.79516 11.7731 5.87622 11.6921C5.93701 11.611 5.97753 11.5097 5.97753 11.3679V10.3547H6.64623C7.09202 10.3547 7.41624 10.2534 7.63914 10.071C7.86204 9.88865 7.98362 9.60496 7.98362 9.24022C7.98362 9.07811 7.96336 8.91601 7.90257 8.77416C7.82151 8.65258 7.74046 8.531 7.63914 8.44995ZM7.15282 9.5847C7.09202 9.66575 7.01097 9.72654 6.88939 9.76707C6.76781 9.8076 6.62596 9.82786 6.46386 9.82786H5.97753V8.73364H6.46386C6.78807 8.73364 6.99071 8.79443 7.11229 8.89574C7.21361 8.99706 7.25413 9.11864 7.25413 9.28075C7.23387 9.40233 7.21361 9.50365 7.15282 9.5847Z" fill="#CC2D78"/>
<path d="M12.7051 8.14575C12.5835 8.16602 12.5024 8.18628 12.4416 8.22681C12.3809 8.24707 12.3201 8.30786 12.2998 8.36865C12.2593 8.42944 12.2593 8.51049 12.2593 8.63208V11.3677C12.2593 11.5095 12.2998 11.6311 12.3606 11.6919C12.4214 11.7729 12.5227 11.7932 12.624 11.7932C12.7253 11.7932 12.8064 11.7527 12.8874 11.6919C12.9482 11.6108 12.9888 11.5095 12.9888 11.3677V10.1924H14.1843C14.2856 10.1924 14.3667 10.1721 14.4275 10.1113C14.4883 10.0708 14.5085 9.98973 14.5085 9.90868C14.5085 9.82762 14.4883 9.76683 14.4275 9.70604C14.3667 9.66552 14.2856 9.62499 14.1843 9.62499H12.9888V8.71313H14.4072C14.5288 8.71313 14.6098 8.69287 14.6706 8.63208C14.7314 8.57129 14.7517 8.51049 14.7517 8.42944C14.7517 8.34839 14.7314 8.2876 14.6706 8.22681C14.6098 8.16602 14.5288 8.14575 14.4072 8.14575H12.7051Z" fill="#CC2D78"/>
</svg>
