<svg width="120" height="120" viewBox="0 0 120 120" fill="none" xmlns="http://www.w3.org/2000/svg">
<mask id="mask0" mask-type="alpha" maskUnits="userSpaceOnUse" x="0" y="-1" width="120" height="121">
<circle cx="60" cy="59.999" r="60" fill="black"/>
</mask>
<g mask="url(#mask0)">
<circle cx="42" cy="71" r="11" fill="#FAC594"/>
<circle cx="77" cy="71" r="11" fill="#FAC594"/>
<path d="M42.0003 60C35.3832 60 30 65.1588 30 71.5C30 77.8412 35.3832 83 42.0003 83C48.6168 83 54 77.8412 54 71.5C54 65.1588 48.6168 60 42.0003 60ZM42.0003 62.0052C46.6308 62.0052 50.528 65.0655 51.6092 69.1862C51.0909 71.1677 49.899 72.9617 48.2302 74.2574C46.4754 75.6196 44.2631 76.3698 42.0008 76.3698C39.738 76.3698 37.5256 75.6196 35.7703 74.2574C34.1015 72.9617 32.9091 71.1677 32.3908 69.1862C33.472 65.0655 37.3692 62.0052 42.0003 62.0052ZM42.0003 80.9948C37.3396 80.9948 33.423 77.8948 32.3715 73.734C32.9693 74.5047 33.6682 75.2059 34.4537 75.8154C36.58 77.4661 39.26 78.375 42.0008 78.375C44.7411 78.375 47.4211 77.4661 49.5474 75.8154C50.3323 75.2054 51.0307 74.5047 51.6285 73.7345C50.5764 77.8948 46.6604 80.9948 42.0003 80.9948Z" fill="#30394A"/>
<path d="M92.9624 65.461C92.9614 65.4548 92.7679 64.9725 92.6895 64.7916L84.0883 44.015C83.0284 41.4552 81.1193 39.4376 78.7618 38.2285L77.953 36.274C77.4275 35.0054 76.545 33.9307 75.3985 33.1657C74.2519 32.4032 72.9186 32 71.5428 32C67.7192 32 64.6085 35.0995 64.6085 38.9093V41.2288C63.0303 43.1828 62.0825 45.6625 62.0825 48.3599V49.1275H57.917V48.3599C57.917 45.6625 56.9692 43.1828 55.391 41.2288V38.9093C55.391 35.0995 52.2803 32 48.4567 32C47.0809 32 45.7476 32.4032 44.6 33.1667C43.455 33.9307 42.572 35.0054 42.0464 36.274L41.2376 38.2285C38.8807 39.4376 36.971 41.4552 35.9117 44.015L33.7036 49.3482C33.4909 49.8621 33.7363 50.4498 34.252 50.6618C34.7677 50.8737 35.3576 50.6292 35.5698 50.1154L37.7778 44.7822C39.2377 41.2562 42.6545 38.9781 46.4822 38.9781C51.6738 38.9781 55.8979 43.1864 55.8979 48.3599V63.3659C53.1664 58.4974 47.9421 55.1978 41.9583 55.1978C38.2104 55.1978 34.761 56.4927 32.0347 58.6556L34.2136 53.3922C34.4263 52.8789 34.1804 52.2906 33.6653 52.0787C33.1501 51.8667 32.5597 52.1118 32.347 52.6251L27.3105 64.7911C27.2316 64.972 27.0163 65.5075 27.0065 65.5416C26.3564 67.2723 26 69.1452 26 71.0992C26 79.8669 33.1589 87 41.9588 87C50.7581 87 57.917 79.8669 57.917 71.0992V70.452H62.083V71.0992C62.083 79.8669 69.2419 87 78.0412 87C86.8411 87 94 79.8669 94 71.0992C94 69.1147 93.6322 67.2144 92.9624 65.461ZM46.4822 36.9662C45.5691 36.9662 44.6757 37.0747 43.815 37.2784L43.9131 37.0411C44.2856 36.1417 44.9118 35.3797 45.7221 34.839C46.5356 34.2978 47.4814 34.0114 48.4567 34.0114C51.1669 34.0114 53.3723 36.2089 53.3723 38.9093V39.2737C51.4549 37.8269 49.0679 36.9662 46.4822 36.9662ZM71.5433 34.0114C72.5186 34.0114 73.4639 34.2978 74.2763 34.838C75.0882 35.3797 75.7144 36.1417 76.0869 37.0411L76.185 37.2784C75.3243 37.0742 74.4309 36.9662 73.5173 36.9662C70.9321 36.9662 68.5451 37.8269 66.6277 39.2737V38.9093C66.6277 36.2089 68.8326 34.0114 71.5433 34.0114ZM64.1021 48.3599C64.1021 43.1864 68.3257 38.9781 73.5178 38.9781C77.3455 38.9781 80.7623 41.2562 82.2217 44.7822L87.9653 58.6556C85.239 56.4927 81.789 55.1978 78.0412 55.1978C72.0574 55.1978 66.8331 58.4974 64.1021 63.3654V48.3599ZM62.083 51.1394V60.7957H57.917V51.1394H62.083ZM41.9588 84.9886C34.2722 84.9886 28.0192 78.758 28.0192 71.0992C28.0192 63.4403 34.2722 57.2097 41.9588 57.2097C49.6448 57.2097 55.8979 63.4403 55.8979 71.0992C55.8979 78.758 49.6448 84.9886 41.9588 84.9886ZM57.917 68.4401V62.8071H62.083V68.4401H57.917ZM78.0412 84.9886C70.3552 84.9886 64.1021 78.758 64.1021 71.0992C64.1021 63.4403 70.3552 57.2097 78.0412 57.2097C85.7278 57.2097 91.9808 63.4403 91.9808 71.0992C91.9808 78.758 85.7278 84.9886 78.0412 84.9886Z" fill="#30394A"/>
<path d="M86.126 64.3896C85.6642 64.7224 85.5722 65.351 85.9195 65.7935C86.7238 66.8167 87.2926 67.9615 87.6109 69.1779C87.0937 71.1625 85.9007 72.9601 84.2293 74.2574C82.4751 75.6196 80.2628 76.3698 78 76.3698C75.7377 76.3698 73.5249 75.6196 71.7702 74.2574C70.1014 72.9622 68.909 71.1682 68.3908 69.1872C69.4713 65.0661 73.369 62.0052 78 62.0052C79.9854 62.0052 81.9009 62.5657 83.5385 63.626C84.0175 63.9362 84.668 63.8156 84.9911 63.3566C85.3147 62.8975 85.1889 62.2747 84.7099 61.9645C82.7251 60.6796 80.4047 60 78 60C71.3831 60 66 65.1588 66 71.5C66 77.8412 71.3831 83 78 83C84.6169 83 90 77.8412 90 71.5C90 68.9832 89.1667 66.5926 87.5904 64.5874C87.2437 64.1449 86.5878 64.0562 86.126 64.3896ZM78 80.9948C73.3405 80.9948 69.424 77.8953 68.3725 73.735C68.9698 74.5047 69.6681 75.2059 70.4536 75.8154C72.5798 77.4661 75.2598 78.375 78.0005 78.375C80.7407 78.375 83.4207 77.4661 85.547 75.8154C86.3324 75.2054 87.0313 74.5042 87.6286 73.7334C86.577 77.8948 82.6605 80.9948 78 80.9948Z" fill="#30394A"/>
<circle opacity="0.2" cx="17.3254" cy="43.3255" r="6.7472" transform="rotate(165 17.3254 43.3255)" stroke="#F6882F" stroke-width="5"/>
<g opacity="0.2">
<circle cx="103.51" cy="57.5103" r="3.6825" transform="rotate(165 103.51 57.5103)" fill="#CC2D78"/>
<circle cx="103.51" cy="57.5103" r="3.6825" transform="rotate(165 103.51 57.5103)" stroke="#F6882F"/>
</g>
<g opacity="0.2">
<circle cx="23.5099" cy="84.5103" r="3.6825" transform="rotate(165 23.5099 84.5103)" fill="#FFE000"/>
<circle cx="23.5099" cy="84.5103" r="3.6825" transform="rotate(165 23.5099 84.5103)" stroke="#F6882F"/>
</g>
</g>
</svg>
