<svg width="48" height="48" viewBox="0 0 48 48" fill="none" xmlns="http://www.w3.org/2000/svg">
<path fill-rule="evenodd" clip-rule="evenodd" d="M24 48C37.2548 48 48 37.2548 48 24C48 10.7452 37.2548 0 24 0C10.7452 0 0 10.7452 0 24C0 37.2548 10.7452 48 24 48Z" fill="#FAC594"/>
<g clip-path="url(#clip0)">
<path d="M37.4531 34.9065H35.0469V30.5862C35.0469 30.2841 34.802 30.0393 34.5 30.0393C34.198 30.0393 33.9531 30.2841 33.9531 30.5862V34.9065H27.3906V24.5159C27.3906 24.2138 27.1457 23.969 26.8438 23.969H21.1563C20.8543 23.969 20.6094 24.2138 20.6094 24.5159V34.9065H14.0469V22.5471H14.2574C14.4024 22.5471 14.5415 22.4894 14.6441 22.3869L24 13.0309L33.356 22.3869C33.4586 22.4894 33.5976 22.5471 33.7427 22.5471H33.9531V26.6486C33.9531 26.9507 34.198 27.1955 34.5 27.1955C34.802 27.1955 35.0469 26.9507 35.0469 26.6486V22.5471H37.4531C37.6743 22.5471 37.8737 22.4138 37.9583 22.2095C38.043 22.0052 37.9961 21.7699 37.8398 21.6135L24.3867 8.16041C24.1731 7.94686 23.8269 7.94686 23.6133 8.16041L18.4727 13.301C18.2591 13.5146 18.2591 13.8609 18.4727 14.0744C18.6863 14.288 19.0326 14.288 19.2461 14.0744L24 9.32049L36.1328 21.4533H33.9692L24.3867 11.8708C24.1731 11.6573 23.8269 11.6573 23.6133 11.8708L14.0308 21.4533H11.8672L16.1836 17.137C16.3972 16.9234 16.3972 16.5771 16.1836 16.3635C15.9701 16.15 15.6238 16.15 15.4102 16.3635L10.1602 21.6135C10.0038 21.7699 9.95698 22.0051 10.0416 22.2095C10.1263 22.4138 10.3257 22.5471 10.5469 22.5471H12.9532V34.9064H10.5469C10.245 34.9064 10.0001 35.1512 10.0001 35.4533C10.0001 35.7553 10.245 36.0001 10.5469 36.0001H13.5001H21.1563H26.8438H34.5H37.4531C37.7551 36.0001 38 35.7553 38 35.4533C38 35.1512 37.7551 34.9065 37.4531 34.9065ZM26.2969 34.9065H21.7032V25.0627H26.2969V34.9065Z" fill="white"/>
<path d="M32.2031 23.9688H29.1406C28.8386 23.9688 28.5938 24.2136 28.5938 24.5156V29.9844C28.5938 30.2864 28.8386 30.5312 29.1406 30.5312H32.2031C32.5051 30.5312 32.75 30.2864 32.75 29.9844V24.5156C32.75 24.2136 32.5051 23.9688 32.2031 23.9688ZM31.6562 29.4375H29.6875V25.0625H31.6562V29.4375Z" fill="white"/>
<path d="M18.8594 23.9688H15.7969C15.4949 23.9688 15.25 24.2136 15.25 24.5156V29.9844C15.25 30.2864 15.4949 30.5312 15.7969 30.5312H18.8594C19.1614 30.5312 19.4062 30.2864 19.4062 29.9844V24.5156C19.4062 24.2136 19.1614 23.9688 18.8594 23.9688ZM18.3125 29.4375H16.3437V25.0625H18.3125V29.4375Z" fill="white"/>
<path d="M24 16.9866C22.6129 16.9866 21.4844 18.1151 21.4844 19.5022C21.4844 20.8893 22.6129 22.0178 24 22.0178C25.3871 22.0178 26.5156 20.8893 26.5156 19.5022C26.5156 18.1151 25.3871 16.9866 24 16.9866ZM24 20.9241C23.2159 20.9241 22.5781 20.2862 22.5781 19.5022C22.5781 18.7182 23.2159 18.0803 24 18.0803C24.784 18.0803 25.4219 18.7182 25.4219 19.5022C25.4219 20.2862 24.784 20.9241 24 20.9241Z" fill="white"/>
<path d="M23.3475 29.5977C23.2459 29.496 23.1047 29.4375 22.9609 29.4375C22.8171 29.4375 22.676 29.496 22.5743 29.5977C22.4726 29.6995 22.4141 29.8405 22.4141 29.9844C22.4141 30.1282 22.4725 30.2693 22.5743 30.371C22.6761 30.4727 22.8171 30.5312 22.9609 30.5312C23.1048 30.5312 23.2459 30.4727 23.3475 30.371C23.4492 30.2693 23.5078 30.1282 23.5078 29.9844C23.5078 29.8405 23.4493 29.6995 23.3475 29.5977Z" fill="white"/>
<path d="M17.66 14.887C17.5584 14.7853 17.4173 14.7268 17.2734 14.7268C17.1296 14.7268 16.9885 14.7853 16.8868 14.887C16.7851 14.9888 16.7266 15.1299 16.7266 15.2737C16.7266 15.4175 16.785 15.5586 16.8868 15.6603C16.9886 15.762 17.1296 15.8206 17.2734 15.8206C17.4173 15.8206 17.5584 15.762 17.66 15.6603C17.7617 15.5586 17.8203 15.4175 17.8203 15.2737C17.8203 15.1299 17.7618 14.9888 17.66 14.887Z" fill="white"/>
<path d="M34.8866 28.0845C34.7849 27.9829 34.6438 27.9243 34.5 27.9243C34.3562 27.9243 34.2151 27.9828 34.1134 28.0845C34.0116 28.1868 33.9531 28.3274 33.9531 28.4712C33.9531 28.615 34.0116 28.7561 34.1134 28.8584C34.2151 28.9601 34.3562 29.0181 34.5 29.0181C34.6438 29.0181 34.7849 28.9601 34.8866 28.8584C34.9883 28.7561 35.0469 28.6156 35.0469 28.4712C35.0469 28.3274 34.9884 28.1863 34.8866 28.0845Z" fill="white"/>
</g>
<defs>
<clipPath id="clip0">
<rect width="28" height="28" fill="white" transform="translate(10 8)"/>
</clipPath>
</defs>
</svg>
