<svg width="48" height="48" viewBox="0 0 48 48" fill="none" xmlns="http://www.w3.org/2000/svg">
<path fill-rule="evenodd" clip-rule="evenodd" d="M24 48C37.2548 48 48 37.2548 48 24C48 10.7452 37.2548 0 24 0C10.7452 0 0 10.7452 0 24C0 37.2548 10.7452 48 24 48Z" fill="#FAC594"/>
<path fill-rule="evenodd" clip-rule="evenodd" d="M24 14C29.2869 14 34.2807 16.3949 37.7002 20.5721C38.1545 21.126 38.0846 21.9546 37.5442 22.4202C37.3047 22.6275 37.0132 22.7282 36.7226 22.7282C36.3577 22.7282 35.9955 22.5689 35.7424 22.26C32.8104 18.6795 28.53 16.625 23.9999 16.625C19.4699 16.625 15.1895 18.6795 12.2575 22.2609C12.0044 22.5698 11.6421 22.729 11.2773 22.729C10.9867 22.729 10.6961 22.6275 10.4566 22.421C9.91534 21.9546 9.84543 21.1269 10.2998 20.5721C13.7201 16.3949 18.7131 14 24 14ZM21.443 32.375C21.443 30.926 22.5885 29.75 24 29.75C25.4114 29.75 26.557 30.926 26.557 32.375C26.557 33.824 25.4114 35 24 35C22.5886 35 21.443 33.824 21.443 32.375ZM24 19.25C20.2234 19.25 16.6572 20.9606 14.2145 23.9435C13.7602 24.4982 13.8301 25.326 14.3714 25.7923C14.6108 25.9988 14.9023 26.1004 15.193 26.1004C15.5578 26.1004 15.92 25.9411 16.1723 25.6322C18.1267 23.2444 20.9802 21.875 24 21.875C27.0198 21.875 29.8734 23.2444 31.8286 25.6322C32.0817 25.942 32.444 26.1004 32.8079 26.1004C33.0986 26.1004 33.39 25.9997 33.6296 25.7923C34.1708 25.326 34.2406 24.4974 33.7864 23.9435C31.3428 20.9606 27.7766 19.25 24 19.25ZM18.1284 27.3157C19.5926 25.5264 21.7328 24.5 24 24.5C26.2671 24.5 28.4073 25.5264 29.8716 27.3157C30.3259 27.8704 30.256 28.6982 29.7148 29.1646C29.4753 29.372 29.1838 29.4726 28.8932 29.4726C28.5292 29.4726 28.167 29.3142 27.9138 29.0045C26.9362 27.8101 25.5095 27.1249 24 27.1249C22.4905 27.1249 21.0638 27.8101 20.0861 29.0045C19.8339 29.3133 19.4716 29.4726 19.1068 29.4726C18.8162 29.4726 18.5247 29.3711 18.2852 29.1646C17.7439 28.6982 17.674 27.8705 18.1284 27.3157Z" fill="white"/>
<path d="M37.7002 20.5721L37.3133 20.8889L37.3136 20.8892L37.7002 20.5721ZM37.5442 22.4202L37.2178 22.0414L37.2169 22.0422L37.5442 22.4202ZM35.7424 22.26L35.3555 22.5768L35.3556 22.577L35.7424 22.26ZM12.2575 22.2609L12.6442 22.5778L12.6444 22.5776L12.2575 22.2609ZM10.4566 22.421L10.7831 22.0423L10.783 22.0422L10.4566 22.421ZM10.2998 20.5721L10.6866 20.8889L10.6866 20.8889L10.2998 20.5721ZM14.2145 23.9435L13.8277 23.6267L13.8277 23.6267L14.2145 23.9435ZM14.3714 25.7923L14.6979 25.4137L14.6977 25.4136L14.3714 25.7923ZM16.1723 25.6322L15.7854 25.3155L15.7851 25.3159L16.1723 25.6322ZM31.8286 25.6322L32.2158 25.3158L32.2155 25.3155L31.8286 25.6322ZM33.6296 25.7923L33.3032 25.4136L33.3023 25.4143L33.6296 25.7923ZM33.7864 23.9435L33.3996 24.2603L33.3998 24.2605L33.7864 23.9435ZM18.1284 27.3157L18.5152 27.6325L18.5153 27.6324L18.1284 27.3157ZM29.8716 27.3157L29.4847 27.6324L29.4848 27.6325L29.8716 27.3157ZM29.7148 29.1646L29.3884 28.7858L29.3875 28.7866L29.7148 29.1646ZM27.9138 29.0045L28.301 28.6881L28.3008 28.6878L27.9138 29.0045ZM20.0861 29.0045L19.6992 28.6878L19.6989 28.6882L20.0861 29.0045ZM18.2852 29.1646L18.6117 28.7859L18.6116 28.7858L18.2852 29.1646ZM38.0871 20.2554C34.5749 15.9649 29.4404 13.5 24 13.5V14.5C29.1334 14.5 33.9865 16.8248 37.3133 20.8889L38.0871 20.2554ZM37.8705 22.799C38.618 22.155 38.712 21.0172 38.0868 20.255L37.3136 20.8892C37.597 21.2348 37.5511 21.7542 37.2178 22.0414L37.8705 22.799ZM36.7226 23.2282C37.1299 23.2282 37.5385 23.0865 37.8715 22.7981L37.2169 22.0422C37.0709 22.1686 36.8966 22.2282 36.7226 22.2282V23.2282ZM35.3556 22.577C35.706 23.0045 36.2115 23.2282 36.7226 23.2282V22.2282C36.5039 22.2282 36.285 22.1333 36.1291 21.9431L35.3556 22.577ZM23.9999 17.125C28.3764 17.125 32.5161 19.1094 35.3555 22.5768L36.1292 21.9433C33.1047 18.2497 28.6837 16.125 23.9999 16.125V17.125ZM12.6444 22.5776C15.4838 19.1093 19.6235 17.125 23.9999 17.125V16.125C19.3162 16.125 14.8952 18.2497 11.8706 21.9441L12.6444 22.5776ZM11.2773 23.229C11.7883 23.229 12.2939 23.0054 12.6442 22.5778L11.8708 21.944C11.7149 22.1341 11.496 22.229 11.2773 22.229V23.229ZM10.1301 22.7997C10.4618 23.0857 10.8688 23.229 11.2773 23.229V22.229C11.1047 22.229 10.9303 22.1693 10.7831 22.0423L10.1301 22.7997ZM9.91292 20.2553C9.28801 21.0184 9.38192 22.155 10.1302 22.7998L10.783 22.0422C10.4488 21.7543 10.4028 21.2354 10.6866 20.8889L9.91292 20.2553ZM24 13.5C18.5596 13.5 13.4259 15.965 9.91289 20.2554L10.6866 20.8889C14.0143 16.8248 18.8666 14.5 24 14.5V13.5ZM24 29.25C22.3001 29.25 20.943 30.6623 20.943 32.375H21.943C21.943 31.1897 22.877 30.25 24 30.25V29.25ZM27.057 32.375C27.057 30.6623 25.6998 29.25 24 29.25V30.25C25.123 30.25 26.057 31.1897 26.057 32.375H27.057ZM24 35.5C25.6998 35.5 27.057 34.0877 27.057 32.375H26.057C26.057 33.5603 25.123 34.5 24 34.5V35.5ZM20.943 32.375C20.943 34.0877 22.3001 35.5 24 35.5V34.5C22.877 34.5 21.943 33.5603 21.943 32.375H20.943ZM14.6014 24.2603C16.9514 21.3905 20.3769 19.75 24 19.75V18.75C20.0699 18.75 16.363 20.5306 13.8277 23.6267L14.6014 24.2603ZM14.6977 25.4136C14.3635 25.1256 14.3176 24.6067 14.6014 24.2603L13.8277 23.6267C13.2028 24.3897 13.2967 25.5264 14.045 26.1711L14.6977 25.4136ZM15.193 25.6004C15.0199 25.6004 14.8448 25.5404 14.6979 25.4137L14.0448 26.171C14.3768 26.4572 14.7847 26.6004 15.193 26.6004V25.6004ZM15.7851 25.3159C15.6303 25.5054 15.4117 25.6004 15.193 25.6004V26.6004C15.7038 26.6004 16.2098 26.3768 16.5596 25.9485L15.7851 25.3159ZM24 21.375C20.8266 21.375 17.8323 22.8146 15.7854 25.3155L16.5592 25.9489C18.421 23.6742 21.1339 22.375 24 22.375V21.375ZM32.2155 25.3155C30.1677 22.8146 27.1735 21.375 24 21.375V22.375C26.8662 22.375 29.5791 23.6742 31.4417 25.949L32.2155 25.3155ZM32.8079 25.6004C32.5897 25.6004 32.3712 25.5061 32.2158 25.3158L31.4414 25.9486C31.7923 26.3779 32.2983 26.6004 32.8079 26.6004V25.6004ZM33.3023 25.4143C33.1563 25.5407 32.9819 25.6004 32.8079 25.6004V26.6004C33.2152 26.6004 33.6238 26.4587 33.9568 26.1704L33.3023 25.4143ZM33.3998 24.2605C33.683 24.6059 33.6375 25.1255 33.3032 25.4136L33.9559 26.1711C34.7041 25.5265 34.7982 24.3888 34.173 23.6264L33.3998 24.2605ZM24 19.75C27.6231 19.75 31.0486 21.3905 33.3996 24.2603L34.1732 23.6266C31.6369 20.5307 27.9301 18.75 24 18.75V19.75ZM24 24C21.5794 24 19.2984 25.0963 17.7414 26.9991L18.5153 27.6324C19.8868 25.9564 21.8862 25 24 25V24ZM30.2586 26.9991C28.7015 25.0963 26.4205 24 24 24V25C26.1137 25 28.1131 25.9564 29.4847 27.6324L30.2586 26.9991ZM30.0412 29.5434C30.7895 28.8985 30.8833 27.7619 30.2585 26.9989L29.4848 27.6325C29.7685 27.9789 29.7226 28.4978 29.3884 28.7858L30.0412 29.5434ZM28.8932 29.9726C29.3004 29.9726 29.7091 29.831 30.0421 29.5426L29.3875 28.7866C29.2416 28.9129 29.0672 28.9726 28.8932 28.9726V29.9726ZM27.5267 29.3209C27.8776 29.7502 28.3836 29.9726 28.8932 29.9726V28.9726C28.6748 28.9726 28.4564 28.8782 28.301 28.6881L27.5267 29.3209ZM24 27.6249C25.3557 27.6249 26.6418 28.2398 27.5269 29.3212L28.3008 28.6878C27.2307 27.3804 25.6632 26.6249 24 26.6249V27.6249ZM20.4731 29.3212C21.3582 28.2398 22.6443 27.6249 24 27.6249V26.6249C22.3367 26.6249 20.7694 27.3804 19.6992 28.6878L20.4731 29.3212ZM19.1068 29.9726C19.6176 29.9726 20.1236 29.7491 20.4734 29.3208L19.6989 28.6882C19.5442 28.8776 19.3256 28.9726 19.1068 28.9726V29.9726ZM17.9587 29.5433C18.2907 29.8295 18.6986 29.9726 19.1068 29.9726V28.9726C18.9337 28.9726 18.7586 28.9126 18.6117 28.7859L17.9587 29.5433ZM17.7415 26.9989C17.1166 27.762 17.2105 28.8986 17.9588 29.5434L18.6116 28.7858C18.2774 28.4978 18.2315 27.979 18.5152 27.6325L17.7415 26.9989Z" fill="#FAC594"/>
</svg>
