<svg width="98" height="34" viewBox="0 0 98 34" fill="none" xmlns="http://www.w3.org/2000/svg">
<path d="M17.5 0C29.1667 0 35 7.91781 35 17C35 26.0822 29.1667 34 17.5 34C5.83333 34 0 26.0822 0 17C0 7.91781 5.83333 0 17.5 0ZM17.5 7.91781C11.8533 7.91781 8.86667 11.7836 8.86667 17C8.86667 22.2164 11.8533 26.0822 17.5 26.0822C23.1467 26.0822 26.1333 22.2164 26.1333 17C26.1333 11.7836 23.1467 7.91781 17.5 7.91781Z" fill="url(#paint0_linear)"/>
<path d="M28.2501 25.8077C27.0206 25.8077 25.9282 25.1661 25.9282 23.681C25.9282 22.2217 27.0206 21.5801 28.2501 21.5801C29.5016 21.5801 30.572 22.2217 30.572 23.681C30.572 25.1661 29.5016 25.8077 28.2501 25.8077Z" fill="white"/>
<path d="M40.2932 10.4688C43.7733 10.4688 45.8701 11.6694 45.8701 14.2673C45.8701 15.9182 45.0303 17.0153 43.5043 17.5277C45.2114 17.9986 46.5068 19.1578 46.5068 21.2382C46.5068 24.6487 43.0487 25.487 40.0188 25.487H33.1025V10.4688H40.2932ZM40.156 19.2406H37.2907V22.3716H40.156C41.4295 22.3716 42.2748 21.9835 42.2748 20.8035C42.2748 19.6288 41.4295 19.2406 40.156 19.2406ZM39.909 13.579H37.3127V16.3477L39.909 16.3684C41.0233 16.3684 41.66 15.8302 41.66 14.9711C41.66 14.1121 41.0233 13.579 39.909 13.579Z" fill="white"/>
<path d="M46.875 25.487L53.1325 10.4639H57.6829L63.9404 25.487H59.6151L58.7039 23.1272H52.1061L51.1949 25.487H46.875ZM53.363 19.9083H57.4579L55.8166 15.5716C55.6794 15.2094 55.5422 14.8419 55.405 14.0502C55.2677 14.8419 55.1305 15.2094 54.9933 15.5716L53.363 19.9083Z" fill="white"/>
<path d="M65.6963 25.4872V10.4688H69.6814L75.917 19.0958C75.8511 18.3868 75.8237 17.4449 75.8237 16.6065V10.4688H80.0338V25.4923H76.0487L69.8131 16.886C69.879 17.595 69.9064 18.5369 69.9064 19.3546V25.4923H65.6963V25.4872Z" fill="white"/>
<path d="M83.2729 25.4872V10.4688H87.4831V16.1563H89.4866L93.1039 10.4688H97.7696L92.7636 17.7865L98.0001 25.4923H93.3344L89.4646 19.6961H87.4831V25.4923H83.2729V25.4872Z" fill="white"/>
<defs>
<linearGradient id="paint0_linear" x1="4.96715" y1="4.49157" x2="29.9845" y2="29.5581" gradientUnits="userSpaceOnUse">
<stop stop-color="#5A308D"/>
<stop offset="0.0706" stop-color="#42338C"/>
<stop offset="0.6638" stop-color="#CC2D78"/>
<stop offset="1" stop-color="#E9AF30"/>
</linearGradient>
</defs>
</svg>
