<svg width="120" height="120" viewBox="0 0 120 120" fill="none" xmlns="http://www.w3.org/2000/svg">
<mask id="mask0" mask-type="alpha" maskUnits="userSpaceOnUse" x="0" y="0" width="120" height="120">
<circle cx="60" cy="60" r="60" fill="black"/>
</mask>
<g mask="url(#mask0)">
<circle cx="60" cy="60" r="60" fill="#FAC594"/>
<path d="M40.875 52.125C41.1734 52.125 41.4595 52.0065 41.6705 51.7955C41.8815 51.5845 42 51.2984 42 51V35.25H75.75V42C75.75 42.2984 75.8685 42.5845 76.0795 42.7955C76.2905 43.0065 76.5766 43.125 76.875 43.125C77.1734 43.125 77.4595 43.0065 77.6705 42.7955C77.8815 42.5845 78 42.2984 78 42V34.125C77.9976 32.0372 77.1672 30.0355 75.6908 28.5592C74.2145 27.0828 72.2128 26.2524 70.125 26.25H47.625C45.5372 26.2524 43.5355 27.0828 42.0592 28.5592C40.5828 30.0355 39.7524 32.0372 39.75 34.125V51C39.75 51.2984 39.8685 51.5845 40.0795 51.7955C40.2905 52.0065 40.5766 52.125 40.875 52.125ZM47.625 28.5H70.125C71.4212 28.5016 72.6773 28.9501 73.6814 29.7698C74.6855 30.5895 75.3764 31.7303 75.6375 33H42.1125C42.3736 31.7303 43.0645 30.5895 44.0686 29.7698C45.0727 28.9501 46.3288 28.5016 47.625 28.5Z" fill="white"/>
<path d="M76.875 70.125C76.5766 70.125 76.2905 70.2435 76.0795 70.4545C75.8685 70.6655 75.75 70.9516 75.75 71.25V84.75H42V80.25C42 79.9516 41.8815 79.6655 41.6705 79.4545C41.4595 79.2435 41.1734 79.125 40.875 79.125C40.5766 79.125 40.2905 79.2435 40.0795 79.4545C39.8685 79.6655 39.75 79.9516 39.75 80.25V85.875C39.7524 87.9628 40.5828 89.9645 42.0592 91.4408C43.5355 92.9172 45.5372 93.7476 47.625 93.75H70.125C72.2128 93.7476 74.2145 92.9172 75.6908 91.4408C77.1672 89.9645 77.9976 87.9628 78 85.875V71.25C78 70.9516 77.8815 70.6655 77.6705 70.4545C77.4595 70.2435 77.1734 70.125 76.875 70.125ZM70.125 91.5H47.625C46.3288 91.4984 45.0727 91.0499 44.0686 90.2302C43.0645 89.4105 42.3736 88.2697 42.1125 87H75.6375C75.3764 88.2697 74.6855 89.4105 73.6814 90.2302C72.6773 91.0499 71.4212 91.4984 70.125 91.5Z" fill="white"/>
<path d="M55.5 29.625H57.75V31.875H55.5V29.625Z" fill="white"/>
<path d="M60 29.625H62.25V31.875H60V29.625Z" fill="white"/>
<path d="M55.5 88.125H62.25V90.375H55.5V88.125Z" fill="white"/>
<path d="M48.75 65.625C48.158 65.6307 47.5782 65.7942 47.0704 66.0986C46.5579 65.7918 45.9723 65.6282 45.375 65.625C44.4799 65.625 43.6214 65.9806 42.9885 66.6135C42.3556 67.2465 42 68.1049 42 69C42 69.8951 42.3556 70.7535 42.9885 71.3865C43.6214 72.0194 44.4799 72.375 45.375 72.375C45.9723 72.3718 46.5579 72.2082 47.0704 71.9014C47.5782 72.2058 48.158 72.3693 48.75 72.375C49.6451 72.375 50.5036 72.0194 51.1365 71.3865C51.7694 70.7535 52.125 69.8951 52.125 69C52.125 68.1049 51.7694 67.2465 51.1365 66.6135C50.5036 65.9806 49.6451 65.625 48.75 65.625ZM44.25 69C44.25 68.7775 44.316 68.56 44.4396 68.375C44.5632 68.19 44.7389 68.0458 44.9445 67.9606C45.15 67.8755 45.3762 67.8532 45.5945 67.8966C45.8127 67.94 46.0132 68.0472 46.1705 68.2045C46.3278 68.3618 46.435 68.5623 46.4784 68.7805C46.5218 68.9988 46.4995 69.225 46.4144 69.4305C46.3292 69.6361 46.185 69.8118 46 69.9354C45.815 70.059 45.5975 70.125 45.375 70.125C45.0766 70.125 44.7905 70.0065 44.5795 69.7955C44.3685 69.5845 44.25 69.2984 44.25 69ZM48.75 70.125C48.6843 70.1169 48.6195 70.1026 48.5565 70.0823C48.8145 69.3838 48.8145 68.6162 48.5565 67.9177C48.6195 67.8974 48.6843 67.8831 48.75 67.875C49.0484 67.875 49.3345 67.9935 49.5455 68.2045C49.7565 68.4155 49.875 68.7016 49.875 69C49.875 69.2984 49.7565 69.5845 49.5455 69.7955C49.3345 70.0065 49.0484 70.125 48.75 70.125Z" fill="white"/>
<path d="M30.75 58.875H33V62.25H30.75V58.875Z" fill="white"/>
<path d="M34.125 58.875H36.375V62.25H34.125V58.875Z" fill="white"/>
<path d="M37.5 58.875H39.75V62.25H37.5V58.875Z" fill="white"/>
<path d="M40.875 58.875H43.125V62.25H40.875V58.875Z" fill="white"/>
<path d="M30.75 70.125H39.75V72.375H30.75V70.125Z" fill="white"/>
<path d="M92.625 44.25H65.625C65.3266 44.25 65.0405 44.3685 64.8295 44.5795C64.6185 44.7905 64.5 45.0766 64.5 45.375V47.625H62.25C61.9516 47.625 61.6655 47.7435 61.4545 47.9545C61.2435 48.1655 61.125 48.4516 61.125 48.75V51H58.875C58.5766 51 58.2905 51.1185 58.0795 51.3295C57.8685 51.5405 57.75 51.8266 57.75 52.125V67.875C57.75 68.1734 57.8685 68.4595 58.0795 68.6705C58.2905 68.8815 58.5766 69 58.875 69H85.875C86.1734 69 86.4595 68.8815 86.6705 68.6705C86.8815 68.4595 87 68.1734 87 67.875V65.625H89.25C89.5484 65.625 89.8345 65.5065 90.0455 65.2955C90.2565 65.0845 90.375 64.7984 90.375 64.5V62.25H92.625C92.9234 62.25 93.2095 62.1315 93.4205 61.9205C93.6315 61.7095 93.75 61.4234 93.75 61.125V45.375C93.75 45.0766 93.6315 44.7905 93.4205 44.5795C93.2095 44.3685 92.9234 44.25 92.625 44.25ZM84.75 66.75H60V53.25H84.75V66.75ZM88.125 63.375H87V52.125C87 51.8266 86.8815 51.5405 86.6705 51.3295C86.4595 51.1185 86.1734 51 85.875 51H63.375V49.875H88.125V63.375ZM91.5 60H90.375V48.75C90.375 48.4516 90.2565 48.1655 90.0455 47.9545C89.8345 47.7435 89.5484 47.625 89.25 47.625H66.75V46.5H91.5V60Z" fill="white"/>
<path d="M72.375 55.5C71.485 55.5 70.615 55.7639 69.8749 56.2584C69.1349 56.7529 68.5581 57.4557 68.2175 58.2779C67.8769 59.1002 67.7878 60.005 67.9615 60.8779C68.1351 61.7508 68.5637 62.5527 69.193 63.182C69.8224 63.8113 70.6242 64.2399 71.4971 64.4135C72.37 64.5872 73.2748 64.4981 74.0971 64.1575C74.9194 63.8169 75.6222 63.2401 76.1166 62.5001C76.6111 61.7601 76.875 60.89 76.875 60C76.875 58.8065 76.4009 57.6619 75.557 56.818C74.7131 55.9741 73.5685 55.5 72.375 55.5ZM72.375 62.25C71.93 62.25 71.495 62.1181 71.125 61.8708C70.755 61.6236 70.4666 61.2722 70.2963 60.861C70.126 60.4499 70.0814 59.9975 70.1682 59.5611C70.2551 59.1246 70.4693 58.7237 70.784 58.409C71.0987 58.0943 71.4996 57.8801 71.9361 57.7932C72.3725 57.7064 72.8249 57.751 73.236 57.9213C73.6472 58.0916 73.9986 58.38 74.2458 58.75C74.4931 59.12 74.625 59.555 74.625 60C74.625 60.5967 74.388 61.169 73.966 61.591C73.544 62.013 72.9717 62.25 72.375 62.25Z" fill="white"/>
<path d="M81.375 58.875H80.25C79.9516 58.875 79.6655 58.9935 79.4545 59.2045C79.2435 59.4155 79.125 59.7016 79.125 60C79.125 60.2984 79.2435 60.5845 79.4545 60.7955C79.6655 61.0065 79.9516 61.125 80.25 61.125H81.375C81.6734 61.125 81.9595 61.0065 82.1705 60.7955C82.3815 60.5845 82.5 60.2984 82.5 60C82.5 59.7016 82.3815 59.4155 82.1705 59.2045C81.9595 58.9935 81.6734 58.875 81.375 58.875Z" fill="white"/>
<path d="M64.5 58.875H63.375C63.0766 58.875 62.7905 58.9935 62.5795 59.2045C62.3685 59.4155 62.25 59.7016 62.25 60C62.25 60.2984 62.3685 60.5845 62.5795 60.7955C62.7905 61.0065 63.0766 61.125 63.375 61.125H64.5C64.7984 61.125 65.0845 61.0065 65.2955 60.7955C65.5065 60.5845 65.625 60.2984 65.625 60C65.625 59.7016 65.5065 59.4155 65.2955 59.2045C65.0845 58.9935 64.7984 58.875 64.5 58.875Z" fill="white"/>
<path d="M53.25 79.125C53.25 79.4234 53.3685 79.7095 53.5795 79.9205C53.7905 80.1315 54.0766 80.25 54.375 80.25C54.6734 80.25 54.9595 80.1315 55.1705 79.9205C55.3815 79.7095 55.5 79.4234 55.5 79.125V52.125C55.5 51.8266 55.3815 51.5405 55.1705 51.3295C54.9595 51.1185 54.6734 51 54.375 51C54.0766 51 53.7905 51.1185 53.5795 51.3295C53.3685 51.5405 53.25 51.8266 53.25 52.125V54.375H29.625C28.7299 54.375 27.8714 54.7306 27.2385 55.3635C26.6056 55.9964 26.25 56.8549 26.25 57.75V73.5C26.25 74.3951 26.6056 75.2535 27.2385 75.8865C27.8714 76.5194 28.7299 76.875 29.625 76.875H53.25V79.125ZM29.625 74.625C29.3266 74.625 29.0405 74.5065 28.8295 74.2955C28.6185 74.0845 28.5 73.7984 28.5 73.5V57.75C28.5 57.4516 28.6185 57.1655 28.8295 56.9545C29.0405 56.7435 29.3266 56.625 29.625 56.625H53.25V74.625H29.625Z" fill="white"/>
<path d="M30.75 66.75H33V69H30.75V66.75Z" fill="white"/>
<path d="M34.125 66.75H36.375V69H34.125V66.75Z" fill="white"/>
<path d="M37.5 66.75H39.75V69H37.5V66.75Z" fill="white"/>
</g>
</svg>
