<svg width="120" height="120" viewBox="0 0 120 120" fill="none" xmlns="http://www.w3.org/2000/svg">
<mask id="mask0" mask-type="alpha" maskUnits="userSpaceOnUse" x="0" y="-1" width="120" height="121">
<circle cx="60" cy="59.999" r="60" fill="black"/>
</mask>
<g mask="url(#mask0)">
<circle opacity="0.2" cx="17.3254" cy="43.3255" r="6.7472" transform="rotate(165 17.3254 43.3255)" stroke="#F6882F" stroke-width="5"/>
<g opacity="0.2">
<circle cx="103.51" cy="57.5103" r="3.6825" transform="rotate(165 103.51 57.5103)" fill="#CC2D78"/>
<circle cx="103.51" cy="57.5103" r="3.6825" transform="rotate(165 103.51 57.5103)" stroke="#F6882F"/>
</g>
<g opacity="0.2">
<circle cx="23.5099" cy="84.5103" r="3.6825" transform="rotate(165 23.5099 84.5103)" fill="#FFE000"/>
<circle cx="23.5099" cy="84.5103" r="3.6825" transform="rotate(165 23.5099 84.5103)" stroke="#F6882F"/>
</g>
<path d="M37.1562 96.2812C37.1562 99.2496 39.5629 101.656 42.5312 101.656H77.4688C80.4371 101.656 82.8438 99.2496 82.8438 96.2812V85.5312H37.1562V96.2812ZM77.4688 97.625C78.2108 97.625 78.8125 97.0233 78.8125 96.2812C78.8125 97.0233 78.2108 97.625 77.4688 97.625ZM60 89.5625C62.2262 89.5625 64.0312 91.3675 64.0312 93.5938C64.0312 95.82 62.2262 97.625 60 97.625C57.7738 97.625 55.9688 95.82 55.9688 93.5938C55.9688 91.3675 57.7738 89.5625 60 89.5625Z" fill="#FAC594"/>
<path d="M77.4688 18.3438H42.5312C39.5629 18.3438 37.1562 20.7504 37.1562 23.7188V27.75H82.8438V23.7188C82.8438 20.7504 80.4371 18.3438 77.4688 18.3438Z" fill="#FAC594"/>
<path d="M64.0312 93.5938C64.0312 95.82 62.2262 97.625 60 97.625C57.7738 97.625 55.9688 95.82 55.9688 93.5938C55.9688 91.3675 57.7738 89.5625 60 89.5625C62.2262 89.5625 64.0312 91.3675 64.0312 93.5938Z" fill="#FAC594"/>
<path d="M49.3292 64.0311H70.6704C71.0693 64.0344 71.4669 63.9944 71.8573 63.913C74.6426 63.3428 76.6306 60.8752 76.5959 58.0322C76.5611 55.1891 74.5133 52.7713 71.7143 52.2694C70.8711 47.3478 66.5512 43.7863 61.5594 43.8965C56.5676 44.0068 52.4084 47.7552 51.7824 52.709C51.0134 52.354 50.1762 52.1703 49.3292 52.171C46.0551 52.171 43.4004 54.8257 43.4004 58.0997C43.4004 61.3738 46.0551 64.0285 49.3292 64.0285V64.0311Z" fill="#FAC594"/>
<path d="M77.4688 17H42.5312C38.8222 17.0046 35.8171 20.0097 35.8125 23.7188V96.2812C35.8171 99.9903 38.8222 102.995 42.5312 103H77.4688C81.1778 102.995 84.1829 99.9903 84.1875 96.2812V23.7188C84.1829 20.0097 81.1778 17.0046 77.4688 17ZM38.5 29.0938H81.5V84.1875H38.5V29.0938ZM42.5312 19.6875H77.4688C79.695 19.6875 81.5 21.4925 81.5 23.7188V26.4062H38.5V23.7188C38.5 21.4925 40.305 19.6875 42.5312 19.6875ZM77.4688 100.312H42.5312C40.305 100.312 38.5 98.5075 38.5 96.2812V86.875H81.5V96.2812C81.5 98.5075 79.695 100.312 77.4688 100.312Z" fill="#30394A"/>
<path d="M60 88.2188C57.0317 88.2188 54.625 90.6254 54.625 93.5938C54.625 96.5621 57.0317 98.9688 60 98.9688C62.9683 98.9688 65.375 96.5621 65.375 93.5938C65.375 90.6254 62.9683 88.2188 60 88.2188ZM60 96.2812C58.5158 96.2812 57.3125 95.0779 57.3125 93.5938C57.3125 92.1096 58.5158 90.9062 60 90.9062C61.4842 90.9062 62.6875 92.1096 62.6875 93.5938C62.6875 95.0779 61.4842 96.2812 60 96.2812Z" fill="#30394A"/>
<path d="M72.8552 51.166C71.5863 46.1276 67.0767 42.5806 61.8808 42.5346C56.685 42.4887 52.1131 45.955 50.7549 50.9698C48.0398 50.4298 45.2539 51.4783 43.5677 53.6737C41.8821 55.8691 41.5888 58.8315 42.8111 61.315C44.0342 63.7984 46.5609 65.3725 49.3291 65.3751H54.6247C55.3668 65.3751 55.9685 64.7734 55.9685 64.0313C55.9685 63.2893 55.3668 62.6876 54.6247 62.6876H49.3291C47.6724 62.7158 46.1298 61.8484 45.2933 60.4187C44.4567 58.9883 44.4567 57.2181 45.2933 55.7884C46.1298 54.3581 47.6724 53.4907 49.3291 53.5189C49.9813 53.5149 50.6269 53.6521 51.2207 53.9224C51.6111 54.1022 52.0632 54.0845 52.4385 53.8751C52.8132 53.6658 53.0651 53.2899 53.1169 52.8634C53.6635 48.573 57.2676 45.3291 61.5915 45.2353C65.916 45.1414 69.6573 48.2259 70.3895 52.4887C70.4847 53.0491 70.9223 53.4893 71.482 53.5878C73.6433 53.9828 75.2206 55.856 75.2422 58.0527C75.2639 60.2494 73.724 62.1535 71.5705 62.5911C71.2746 62.6522 70.9728 62.6817 70.6703 62.6784H65.3747C64.6326 62.6784 64.031 63.2801 64.031 64.0222C64.031 64.7642 64.6326 65.3659 65.3747 65.3659H70.6703C71.1578 65.3692 71.644 65.3206 72.1217 65.2222C75.3708 64.5602 77.7611 61.7848 77.9337 58.4733C78.1062 55.1625 76.0178 52.1528 72.8552 51.1568V51.166Z" fill="#30394A"/>
<path d="M65.8791 69.7009L61.3439 73.3286V58.6562C61.3439 57.9142 60.7423 57.3125 60.0002 57.3125C59.2581 57.3125 58.6564 57.9142 58.6564 58.6562V73.3286L54.1213 69.7009C53.5419 69.237 52.6955 69.3308 52.2323 69.9102C51.7684 70.4895 51.8622 71.3359 52.4416 71.7991L59.1604 77.1741C59.2194 77.2135 59.2811 77.2476 59.346 77.2765C59.3893 77.3047 59.434 77.331 59.4799 77.3546C59.6439 77.4274 59.8211 77.4661 60.0002 77.4688C60.18 77.4648 60.3571 77.4241 60.5218 77.3506C60.5402 77.3421 60.5632 77.3506 60.5822 77.3356C60.6406 77.3027 60.6963 77.2654 60.7488 77.224C60.7803 77.2096 60.8105 77.1932 60.84 77.1741L67.5588 71.7991C68.1382 71.3359 68.232 70.4895 67.7681 69.9102C67.3049 69.3308 66.4585 69.237 65.8791 69.7009Z" fill="#30394A"/>
<path d="M43.875 96.2812H42.5312C41.7892 96.2812 41.1875 96.8829 41.1875 97.625C41.1875 98.3671 41.7892 98.9688 42.5312 98.9688H43.875C44.6171 98.9688 45.2188 98.3671 45.2188 97.625C45.2188 96.8829 44.6171 96.2812 43.875 96.2812Z" fill="#30394A"/>
<path d="M76.125 25.0625H77.4688C78.2108 25.0625 78.8125 24.4608 78.8125 23.7188C78.8125 22.9767 78.2108 22.375 77.4688 22.375H76.125C75.3829 22.375 74.7812 22.9767 74.7812 23.7188C74.7812 24.4608 75.3829 25.0625 76.125 25.0625Z" fill="#30394A"/>
<path d="M78.8125 90.9062C78.0704 90.9062 77.4688 91.5079 77.4688 92.25V96.2812H73.4375C72.6954 96.2812 72.0938 96.8829 72.0938 97.625C72.0938 98.3671 72.6954 98.9688 73.4375 98.9688H77.4688C78.9529 98.9688 80.1562 97.7654 80.1562 96.2812V92.25C80.1562 91.5079 79.5546 90.9062 78.8125 90.9062Z" fill="#30394A"/>
</g>
</svg>
