<svg width="12" height="22" viewBox="0 0 12 22" fill="none" xmlns="http://www.w3.org/2000/svg">
<path d="M10.3333 0.401367H1.66667C0.746582 0.402489 0.00113933 1.13628 0 2.04199V19.7607C0.00113933 20.6665 0.746582 21.4002 1.66667 21.4014H10.3333C11.2534 21.4002 11.9989 20.6665 12 19.7607V2.04199C11.9989 1.13628 11.2534 0.402489 10.3333 0.401367ZM0.666667 3.35449H11.3333V16.8076H0.666667V3.35449ZM1.66667 1.05762H10.3333C10.8856 1.05762 11.3333 1.49837 11.3333 2.04199V2.69824H0.666667V2.04199C0.666667 1.49837 1.11442 1.05762 1.66667 1.05762ZM10.3333 20.7451H1.66667C1.11442 20.7451 0.666667 20.3044 0.666667 19.7607V17.4639H11.3333V19.7607C11.3333 20.3044 10.8856 20.7451 10.3333 20.7451Z" fill="white"/>
<path d="M5.99982 17.7915C5.2635 17.7915 4.6665 18.3793 4.6665 19.1042C4.6665 19.8291 5.2635 20.4169 5.99982 20.4169C6.73613 20.4169 7.33313 19.8291 7.33313 19.1042C7.33313 18.3793 6.73613 17.7915 5.99982 17.7915ZM5.99982 19.7605C5.63166 19.7605 5.33316 19.4666 5.33316 19.1042C5.33316 18.7417 5.63166 18.4478 5.99982 18.4478C6.36798 18.4478 6.66647 18.7417 6.66647 19.1042C6.66647 19.4666 6.36798 19.7605 5.99982 19.7605Z" fill="white"/>
<path d="M2.00016 19.7603H1.66683C1.48275 19.7603 1.3335 19.9072 1.3335 20.0884C1.3335 20.2697 1.48275 20.4166 1.66683 20.4166H2.00016C2.18424 20.4166 2.3335 20.2697 2.3335 20.0884C2.3335 19.9072 2.18424 19.7603 2.00016 19.7603Z" fill="white"/>
<path d="M9.99984 2.36973H10.3332C10.5173 2.36973 10.6665 2.2229 10.6665 2.0418C10.6665 1.8607 10.5173 1.71387 10.3332 1.71387H9.99984C9.81576 1.71387 9.6665 1.8607 9.6665 2.0418C9.6665 2.2229 9.81576 2.36973 9.99984 2.36973Z" fill="white"/>
<path d="M10.6667 18.4482C10.4826 18.4482 10.3333 18.5951 10.3333 18.7763V19.7606H9.33333C9.14925 19.7606 9 19.9075 9 20.0887C9 20.2699 9.14925 20.4168 9.33333 20.4168H10.3333C10.7015 20.4168 11 20.123 11 19.7606V18.7763C11 18.5951 10.8507 18.4482 10.6667 18.4482Z" fill="white"/>
</svg>
