<svg width="48" height="48" viewBox="0 0 48 48" fill="none" xmlns="http://www.w3.org/2000/svg">
<path fill-rule="evenodd" clip-rule="evenodd" d="M24 48C37.2548 48 48 37.2548 48 24C48 10.7452 37.2548 0 24 0C10.7452 0 0 10.7452 0 24C0 37.2548 10.7452 48 24 48Z" fill="#FAC594"/>
<path d="M29.1803 11H17.8203C16.7331 11 15.8555 11.8816 15.8555 12.9668V36.0352C15.8555 37.1194 16.7331 38 17.8203 38H29.1803C30.2656 38 31.1452 37.1194 31.1452 36.0352V12.9668C31.1452 11.8816 30.2656 11 29.1803 11ZM20.6972 12.1944H26.3054C26.4471 12.1944 26.5622 12.406 26.5622 12.6677C26.5622 12.9294 26.4471 13.1419 26.3054 13.1419H20.6972C20.5545 13.1419 20.4414 12.9294 20.4414 12.6677C20.4414 12.406 20.5545 12.1944 20.6972 12.1944ZM23.5013 36.0588C22.8096 36.0588 22.2468 35.496 22.2468 34.8033C22.2468 34.1107 22.8096 33.5499 23.5013 33.5499C24.191 33.5499 24.7538 34.1107 24.7538 34.8033C24.7538 35.496 24.191 36.0588 23.5013 36.0588ZM29.6733 31.7601H17.3284V14.3187H29.6733V31.7601Z" fill="white"/>
</svg>
